<svg width="318" height="197" viewBox="0 0 318 197" fill="none" xmlns="http://www.w3.org/2000/svg">
<rect width="318" height="197" rx="12" fill="#1A1E30"/>
<path d="M38.7076 28.4545V43H37.003L29.0769 31.5795H28.9348V43H27.1735V28.4545H28.878L36.8326 39.9034H36.9746V28.4545H38.7076ZM46.5787 43.2273C45.5275 43.2273 44.6208 42.9953 43.8585 42.5312C43.1009 42.0625 42.5162 41.4091 42.1042 40.571C41.697 39.7282 41.4934 38.7481 41.4934 37.6307C41.4934 36.5133 41.697 35.5284 42.1042 34.6761C42.5162 33.8191 43.0891 33.1515 43.823 32.6733C44.5616 32.1903 45.4234 31.9489 46.4082 31.9489C46.9764 31.9489 47.5375 32.0436 48.0914 32.233C48.6454 32.4223 49.1497 32.7301 49.6042 33.1562C50.0588 33.5777 50.421 34.1364 50.6909 34.8324C50.9608 35.5284 51.0957 36.3854 51.0957 37.4034V38.1136H42.6866V36.6648H49.3912C49.3912 36.0492 49.2681 35.5 49.0218 35.017C48.7804 34.5341 48.4347 34.1529 47.9849 33.8736C47.5398 33.5942 47.0143 33.4545 46.4082 33.4545C45.7406 33.4545 45.1629 33.6203 44.6752 33.9517C44.1923 34.2784 43.8206 34.7045 43.5602 35.2301C43.2998 35.7557 43.1696 36.3191 43.1696 36.9205V37.8864C43.1696 38.7102 43.3116 39.4086 43.5957 39.9815C43.8845 40.5497 44.2846 40.983 44.796 41.2812C45.3074 41.5748 45.9016 41.7216 46.5787 41.7216C47.019 41.7216 47.4167 41.66 47.7718 41.5369C48.1317 41.4091 48.4418 41.2197 48.7022 40.9688C48.9627 40.7131 49.1639 40.3958 49.3059 40.017L50.9252 40.4716C50.7548 41.0208 50.4683 41.5038 50.0659 41.9205C49.6634 42.3324 49.1663 42.6544 48.5744 42.8864C47.9825 43.1136 47.3173 43.2273 46.5787 43.2273ZM56.117 43L52.7931 32.0909H54.5545L56.9125 40.4432H57.0261L59.3556 32.0909H61.1454L63.4466 40.4148H63.5602L65.9181 32.0909H67.6795L64.3556 43H62.7079L60.3216 34.6193H60.1511L57.7647 43H56.117ZM82.3954 38.5398V32.0909H84.0716V43H82.3954V41.1534H82.2818C82.0261 41.7074 81.6284 42.1785 81.0886 42.5668C80.5488 42.9503 79.867 43.142 79.0431 43.142C78.3613 43.142 77.7553 42.9929 77.225 42.6946C76.6947 42.3916 76.278 41.937 75.975 41.331C75.6719 40.7202 75.5204 39.9508 75.5204 39.0227V32.0909H77.1966V38.9091C77.1966 39.7045 77.4191 40.339 77.8642 40.8125C78.314 41.286 78.8869 41.5227 79.5829 41.5227C79.9996 41.5227 80.4234 41.4162 80.8542 41.2031C81.2898 40.9901 81.6544 40.6634 81.948 40.223C82.2463 39.7827 82.3954 39.2216 82.3954 38.5398ZM94.8688 34.5341L93.3631 34.9602C93.2684 34.7093 93.1287 34.4654 92.9441 34.2287C92.7641 33.9872 92.5179 33.7884 92.2054 33.6321C91.8929 33.4759 91.4928 33.3977 91.0051 33.3977C90.3375 33.3977 89.7812 33.5516 89.3361 33.8594C88.8958 34.1624 88.6756 34.5483 88.6756 35.017C88.6756 35.4337 88.8271 35.7628 89.1301 36.0043C89.4332 36.2457 89.9067 36.447 90.5506 36.608L92.1699 37.0057C93.1453 37.2424 93.8721 37.6046 94.3503 38.0923C94.8285 38.5753 95.0676 39.1979 95.0676 39.9602C95.0676 40.5852 94.8877 41.1439 94.5279 41.6364C94.1728 42.1288 93.6756 42.517 93.0364 42.8011C92.3972 43.0852 91.6538 43.2273 90.8063 43.2273C89.6936 43.2273 88.7727 42.9858 88.0435 42.5028C87.3143 42.0199 86.8527 41.3144 86.6586 40.3864L88.2495 39.9886C88.401 40.5758 88.6874 41.0161 89.1088 41.3097C89.535 41.6032 90.0913 41.75 90.7779 41.75C91.5591 41.75 92.1794 41.5843 92.6387 41.2528C93.1027 40.9167 93.3347 40.5142 93.3347 40.0455C93.3347 39.6667 93.2021 39.3494 92.937 39.0938C92.6718 38.8333 92.2646 38.6392 91.7154 38.5114L89.8972 38.0852C88.8981 37.8485 88.1642 37.4815 87.6955 36.9844C87.2315 36.4825 86.9995 35.8551 86.9995 35.1023C86.9995 34.4867 87.1723 33.9422 87.5179 33.4688C87.8683 32.9953 88.3442 32.6236 88.9455 32.3537C89.5516 32.0838 90.2381 31.9489 91.0051 31.9489C92.0847 31.9489 92.9322 32.1856 93.5478 32.6591C94.168 33.1326 94.6084 33.7576 94.8688 34.5341ZM102.165 43.2273C101.113 43.2273 100.207 42.9953 99.4444 42.5312C98.6868 42.0625 98.1021 41.4091 97.6902 40.571C97.283 39.7282 97.0794 38.7481 97.0794 37.6307C97.0794 36.5133 97.283 35.5284 97.6902 34.6761C98.1021 33.8191 98.675 33.1515 99.4089 32.6733C100.148 32.1903 101.009 31.9489 101.994 31.9489C102.562 31.9489 103.123 32.0436 103.677 32.233C104.231 32.4223 104.736 32.7301 105.19 33.1562C105.645 33.5777 106.007 34.1364 106.277 34.8324C106.547 35.5284 106.682 36.3854 106.682 37.4034V38.1136H98.2725V36.6648H104.977C104.977 36.0492 104.854 35.5 104.608 35.017C104.366 34.5341 104.021 34.1529 103.571 33.8736C103.126 33.5942 102.6 33.4545 101.994 33.4545C101.327 33.4545 100.749 33.6203 100.261 33.9517C99.7782 34.2784 99.4065 34.7045 99.1461 35.2301C98.8857 35.7557 98.7555 36.3191 98.7555 36.9205V37.8864C98.7555 38.7102 98.8975 39.4086 99.1816 39.9815C99.4705 40.5497 99.8706 40.983 100.382 41.2812C100.893 41.5748 101.488 41.7216 102.165 41.7216C102.605 41.7216 103.003 41.66 103.358 41.5369C103.718 41.4091 104.028 41.2197 104.288 40.9688C104.549 40.7131 104.75 40.3958 104.892 40.017L106.511 40.4716C106.341 41.0208 106.054 41.5038 105.652 41.9205C105.249 42.3324 104.752 42.6544 104.16 42.8864C103.568 43.1136 102.903 43.2273 102.165 43.2273ZM109.231 43V32.0909H110.851V33.7386H110.964C111.163 33.1989 111.523 32.7609 112.044 32.4247C112.565 32.0885 113.152 31.9205 113.805 31.9205C113.928 31.9205 114.082 31.9228 114.267 31.9276C114.452 31.9323 114.591 31.9394 114.686 31.9489V33.6534C114.629 33.6392 114.499 33.6179 114.295 33.5895C114.096 33.5563 113.886 33.5398 113.663 33.5398C113.133 33.5398 112.659 33.651 112.243 33.8736C111.831 34.0914 111.504 34.3944 111.263 34.7827C111.026 35.1662 110.907 35.6042 110.907 36.0966V43H109.231ZM124.4 34.5341L122.894 34.9602C122.8 34.7093 122.66 34.4654 122.475 34.2287C122.295 33.9872 122.049 33.7884 121.737 33.6321C121.424 33.4759 121.024 33.3977 120.536 33.3977C119.869 33.3977 119.312 33.5516 118.867 33.8594C118.427 34.1624 118.207 34.5483 118.207 35.017C118.207 35.4337 118.358 35.7628 118.661 36.0043C118.964 36.2457 119.438 36.447 120.082 36.608L121.701 37.0057C122.677 37.2424 123.403 37.6046 123.882 38.0923C124.36 38.5753 124.599 39.1979 124.599 39.9602C124.599 40.5852 124.419 41.1439 124.059 41.6364C123.704 42.1288 123.207 42.517 122.568 42.8011C121.928 43.0852 121.185 43.2273 120.338 43.2273C119.225 43.2273 118.304 42.9858 117.575 42.5028C116.846 42.0199 116.384 41.3144 116.19 40.3864L117.781 39.9886C117.932 40.5758 118.219 41.0161 118.64 41.3097C119.066 41.6032 119.623 41.75 120.309 41.75C121.09 41.75 121.711 41.5843 122.17 41.2528C122.634 40.9167 122.866 40.5142 122.866 40.0455C122.866 39.6667 122.733 39.3494 122.468 39.0938C122.203 38.8333 121.796 38.6392 121.247 38.5114L119.428 38.0852C118.429 37.8485 117.695 37.4815 117.227 36.9844C116.763 36.4825 116.531 35.8551 116.531 35.1023C116.531 34.4867 116.704 33.9422 117.049 33.4688C117.4 32.9953 117.875 32.6236 118.477 32.3537C119.083 32.0838 119.769 31.9489 120.536 31.9489C121.616 31.9489 122.463 32.1856 123.079 32.6591C123.699 33.1326 124.14 33.7576 124.4 34.5341Z" fill="#ADB3CC"/>
<path d="M44.9055 79.8182V122H37.2642V87.2535H37.017L27.1513 93.5561V86.5533L37.6349 79.8182H44.9055ZM56.0005 122L73.9401 86.4915V86.2031H53.117V79.8182H81.8492V86.3473L63.9302 122H56.0005ZM88.9227 116.233L88.655 118.499C88.4627 120.229 88.1195 121.986 87.6251 123.771C87.1445 125.57 86.6365 127.225 86.101 128.735C85.5655 130.246 85.1329 131.433 84.8034 132.298H79.7778C79.9701 131.461 80.231 130.321 80.5605 128.879C80.9038 127.438 81.2333 125.817 81.5491 124.018C81.865 122.22 82.0778 120.393 82.1876 118.54L82.3318 116.233H88.9227ZM109.441 122.577C106.379 122.577 103.66 122.062 101.284 121.032C98.9226 120.002 97.0689 118.595 95.7233 116.81C94.3914 115.011 93.7323 112.972 93.746 110.692C93.7323 108.921 94.1168 107.294 94.8994 105.811C95.6821 104.328 96.7394 103.092 98.0713 102.104C99.417 101.101 100.914 100.463 102.561 100.188V99.8999C100.392 99.4193 98.6343 98.3139 97.2886 96.5838C95.9567 94.84 95.2976 92.8284 95.3114 90.549C95.2976 88.3795 95.9018 86.4434 97.1239 84.7408C98.3459 83.0381 100.021 81.6993 102.149 80.7244C104.278 79.7358 106.708 79.2415 109.441 79.2415C112.146 79.2415 114.555 79.7358 116.67 80.7244C118.798 81.6993 120.474 83.0381 121.696 84.7408C122.931 86.4434 123.549 88.3795 123.549 90.549C123.549 92.8284 122.87 94.84 121.51 96.5838C120.165 98.3139 118.428 99.4193 116.299 99.8999V100.188C117.947 100.463 119.43 101.101 120.748 102.104C122.08 103.092 123.137 104.328 123.92 105.811C124.716 107.294 125.115 108.921 125.115 110.692C125.115 112.972 124.442 115.011 123.096 116.81C121.751 118.595 119.897 120.002 117.535 121.032C115.187 122.062 112.489 122.577 109.441 122.577ZM109.441 116.686C111.02 116.686 112.393 116.418 113.56 115.883C114.727 115.334 115.633 114.565 116.279 113.576C116.924 112.587 117.254 111.448 117.267 110.157C117.254 108.811 116.903 107.624 116.217 106.594C115.544 105.55 114.617 104.733 113.436 104.143C112.269 103.552 110.937 103.257 109.441 103.257C107.93 103.257 106.585 103.552 105.404 104.143C104.223 104.733 103.289 105.55 102.603 106.594C101.93 107.624 101.6 108.811 101.614 110.157C101.6 111.448 101.916 112.587 102.561 113.576C103.207 114.551 104.113 115.313 105.28 115.862C106.461 116.411 107.848 116.686 109.441 116.686ZM109.441 97.4695C110.731 97.4695 111.871 97.2086 112.86 96.6868C113.862 96.165 114.652 95.4373 115.228 94.5036C115.805 93.5698 116.1 92.492 116.114 91.2699C116.1 90.0616 115.812 89.0043 115.249 88.098C114.686 87.178 113.903 86.4709 112.901 85.9766C111.898 85.4685 110.745 85.2145 109.441 85.2145C108.109 85.2145 106.935 85.4685 105.919 85.9766C104.916 86.4709 104.134 87.178 103.571 88.098C103.021 89.0043 102.754 90.0616 102.767 91.2699C102.754 92.492 103.028 93.5698 103.591 94.5036C104.168 95.4235 104.957 96.1513 105.96 96.6868C106.976 97.2086 108.136 97.4695 109.441 97.4695ZM146.317 122.803C142.926 122.803 140.015 121.945 137.584 120.229C135.168 118.499 133.307 116.006 132.003 112.752C130.712 109.484 130.067 105.55 130.067 100.95C130.08 96.3504 130.733 92.437 132.023 89.2102C133.328 85.9697 135.188 83.4981 137.605 81.7955C140.035 80.0928 142.94 79.2415 146.317 79.2415C149.695 79.2415 152.599 80.0928 155.03 81.7955C157.46 83.4981 159.321 85.9697 160.611 89.2102C161.916 92.4508 162.568 96.3641 162.568 100.95C162.568 105.564 161.916 109.505 160.611 112.773C159.321 116.027 157.46 118.512 155.03 120.229C152.613 121.945 149.709 122.803 146.317 122.803ZM146.317 116.357C148.954 116.357 151.034 115.059 152.558 112.464C154.096 109.855 154.865 106.017 154.865 100.95C154.865 97.5999 154.515 94.785 153.815 92.5057C153.114 90.2263 152.126 88.5099 150.849 87.3565C149.572 86.1894 148.061 85.6058 146.317 85.6058C143.695 85.6058 141.621 86.9103 140.097 89.5192C138.573 92.1143 137.804 95.9247 137.79 100.95C137.777 104.314 138.113 107.143 138.8 109.436C139.5 111.729 140.489 113.459 141.766 114.626C143.043 115.78 144.56 116.357 146.317 116.357ZM182.916 122.577C180.17 122.577 177.712 122.062 175.543 121.032C173.373 119.988 171.65 118.56 170.373 116.748C169.11 114.935 168.437 112.862 168.354 110.528H175.769C175.906 112.258 176.655 113.672 178.014 114.771C179.373 115.855 181.007 116.398 182.916 116.398C184.413 116.398 185.745 116.054 186.912 115.368C188.079 114.681 188.999 113.727 189.672 112.505C190.345 111.283 190.674 109.889 190.66 108.324C190.674 106.731 190.338 105.317 189.651 104.081C188.965 102.845 188.024 101.877 186.829 101.177C185.635 100.463 184.262 100.106 182.71 100.106C181.447 100.092 180.204 100.326 178.982 100.806C177.76 101.287 176.792 101.918 176.078 102.701L169.178 101.568L171.382 79.8182H195.851V86.2031H177.705L176.49 97.3871H176.737C177.52 96.4671 178.625 95.705 180.053 95.1009C181.481 94.483 183.047 94.174 184.749 94.174C187.303 94.174 189.583 94.7782 191.587 95.9865C193.592 97.1811 195.171 98.8288 196.324 100.93C197.478 103.031 198.055 105.433 198.055 108.138C198.055 110.926 197.409 113.411 196.118 115.594C194.842 117.764 193.063 119.473 190.784 120.723C188.518 121.959 185.896 122.577 182.916 122.577Z" fill="#ADB3CC"/>
<path d="M28.6364 166.955V159.455H29.9091V166.955H28.6364ZM25.5227 163.841V162.568H33.0227V163.841H25.5227ZM39.5223 157.364V169H38.1132V158.841H38.0451L35.2041 160.727V159.295L38.1132 157.364H39.5223ZM43.8841 167.409L43.7932 168.023C43.7288 168.455 43.6304 168.917 43.4978 169.409C43.369 169.902 43.2345 170.366 43.0944 170.801C42.9542 171.237 42.8387 171.583 42.7478 171.841H41.7251C41.7743 171.598 41.8387 171.278 41.9182 170.881C41.9978 170.483 42.0773 170.038 42.1569 169.545C42.2402 169.057 42.3084 168.557 42.3614 168.045L42.4296 167.409H43.8841ZM49.4278 169.159C48.7611 169.159 48.1607 169.027 47.6266 168.761C47.0926 168.496 46.6645 168.133 46.3426 167.67C46.0206 167.208 45.8445 166.682 45.8141 166.091H47.1778C47.2308 166.617 47.4695 167.053 47.8937 167.398C48.3217 167.739 48.8331 167.909 49.4278 167.909C49.9051 167.909 50.3293 167.797 50.7005 167.574C51.0755 167.35 51.3691 167.044 51.5812 166.653C51.7971 166.259 51.9051 165.814 51.9051 165.318C51.9051 164.811 51.7933 164.358 51.5698 163.96C51.3501 163.559 51.0471 163.242 50.6607 163.011C50.2744 162.78 49.8331 162.663 49.3369 162.659C48.9808 162.655 48.6153 162.71 48.2403 162.824C47.8653 162.934 47.5566 163.076 47.3141 163.25L45.996 163.091L46.7005 157.364H52.746V158.614H47.8823L47.4732 162.045H47.5414C47.7801 161.856 48.0793 161.699 48.4391 161.574C48.799 161.449 49.174 161.386 49.5641 161.386C50.2763 161.386 50.9107 161.557 51.4676 161.898C52.0282 162.235 52.4676 162.697 52.7857 163.284C53.1077 163.871 53.2687 164.542 53.2687 165.295C53.2687 166.038 53.102 166.701 52.7687 167.284C52.4391 167.864 51.9846 168.322 51.4051 168.659C50.8255 168.992 50.1664 169.159 49.4278 169.159ZM59.0012 169.159C58.1452 169.159 57.416 168.926 56.8137 168.46C56.2115 167.991 55.7512 167.311 55.4331 166.42C55.1149 165.527 54.9558 164.447 54.9558 163.182C54.9558 161.924 55.1149 160.85 55.4331 159.96C55.755 159.066 56.2172 158.384 56.8194 157.915C57.4255 157.441 58.1528 157.205 59.0012 157.205C59.8497 157.205 60.5751 157.441 61.1774 157.915C61.7834 158.384 62.2456 159.066 62.5637 159.96C62.8857 160.85 63.0467 161.924 63.0467 163.182C63.0467 164.447 62.8876 165.527 62.5694 166.42C62.2512 167.311 61.791 167.991 61.1887 168.46C60.5865 168.926 59.8573 169.159 59.0012 169.159ZM59.0012 167.909C59.8497 167.909 60.5088 167.5 60.9785 166.682C61.4482 165.864 61.6831 164.697 61.6831 163.182C61.6831 162.174 61.5751 161.316 61.3592 160.608C61.1471 159.9 60.8403 159.36 60.4387 158.989C60.041 158.617 59.5619 158.432 59.0012 158.432C58.1603 158.432 57.5031 158.847 57.0297 159.676C56.5562 160.502 56.3194 161.67 56.3194 163.182C56.3194 164.189 56.4255 165.045 56.6376 165.75C56.8497 166.455 57.1547 166.991 57.5524 167.358C57.9539 167.725 58.4369 167.909 59.0012 167.909ZM68.6813 169.159C67.8252 169.159 67.096 168.926 66.4938 168.46C65.8915 167.991 65.4313 167.311 65.1131 166.42C64.7949 165.527 64.6358 164.447 64.6358 163.182C64.6358 161.924 64.7949 160.85 65.1131 159.96C65.435 159.066 65.8972 158.384 66.4994 157.915C67.1055 157.441 67.8328 157.205 68.6813 157.205C69.5297 157.205 70.2551 157.441 70.8574 157.915C71.4634 158.384 71.9256 159.066 72.2438 159.96C72.5657 160.85 72.7267 161.924 72.7267 163.182C72.7267 164.447 72.5676 165.527 72.2494 166.42C71.9313 167.311 71.471 167.991 70.8688 168.46C70.2665 168.926 69.5373 169.159 68.6813 169.159ZM68.6813 167.909C69.5297 167.909 70.1888 167.5 70.6585 166.682C71.1282 165.864 71.3631 164.697 71.3631 163.182C71.3631 162.174 71.2551 161.316 71.0392 160.608C70.8271 159.9 70.5203 159.36 70.1188 158.989C69.721 158.617 69.2419 158.432 68.6813 158.432C67.8403 158.432 67.1831 158.847 66.7097 159.676C66.2362 160.502 65.9994 161.67 65.9994 163.182C65.9994 164.189 66.1055 165.045 66.3176 165.75C66.5297 166.455 66.8347 166.991 67.2324 167.358C67.6339 167.725 68.1169 167.909 68.6813 167.909ZM79.2458 163.182C79.2458 161.75 79.4314 160.434 79.8026 159.233C80.1776 158.028 80.7117 156.92 81.4049 155.909H82.5867C82.314 156.284 82.0583 156.746 81.8197 157.295C81.5848 157.841 81.3784 158.441 81.2003 159.097C81.0223 159.748 80.8822 160.422 80.7799 161.119C80.6814 161.816 80.6322 162.504 80.6322 163.182C80.6322 164.083 80.7193 164.998 80.8935 165.926C81.0678 166.854 81.3026 167.716 81.5981 168.511C81.8935 169.307 82.2231 169.955 82.5867 170.455H81.4049C80.7117 169.443 80.1776 168.337 79.8026 167.136C79.4314 165.932 79.2458 164.614 79.2458 163.182ZM83.9499 166.614V165.455L89.0636 157.364H89.9045V159.159H89.3363L85.4727 165.273V165.364H92.359V166.614H83.9499ZM89.4272 169V166.261V165.722V157.364H90.7681V169H89.4272ZM95.6442 167.409L95.5532 168.023C95.4888 168.455 95.3904 168.917 95.2578 169.409C95.129 169.902 94.9945 170.366 94.8544 170.801C94.7142 171.237 94.5987 171.583 94.5078 171.841H93.4851C93.5343 171.598 93.5987 171.278 93.6782 170.881C93.7578 170.483 93.8373 170.038 93.9169 169.545C94.0002 169.057 94.0684 168.557 94.1214 168.045L94.1896 167.409H95.6442ZM100.486 157.364V169H99.077V158.841H99.0088L96.1679 160.727V159.295L99.077 157.364H100.486ZM103.876 169L109.081 158.705V158.614H103.081V157.364H110.535V158.682L105.354 169H103.876ZM118.265 166.818V166.205C118.265 165.78 118.352 165.392 118.526 165.04C118.705 164.684 118.962 164.4 119.299 164.188C119.64 163.972 120.053 163.864 120.538 163.864C121.03 163.864 121.443 163.972 121.776 164.188C122.11 164.4 122.362 164.684 122.532 165.04C122.703 165.392 122.788 165.78 122.788 166.205V166.818C122.788 167.242 122.701 167.633 122.526 167.989C122.356 168.341 122.102 168.625 121.765 168.841C121.432 169.053 121.023 169.159 120.538 169.159C120.045 169.159 119.631 169.053 119.294 168.841C118.956 168.625 118.701 168.341 118.526 167.989C118.352 167.633 118.265 167.242 118.265 166.818ZM119.424 166.205V166.818C119.424 167.17 119.508 167.487 119.674 167.767C119.841 168.044 120.129 168.182 120.538 168.182C120.936 168.182 121.216 168.044 121.379 167.767C121.545 167.487 121.629 167.17 121.629 166.818V166.205C121.629 165.852 121.549 165.538 121.39 165.261C121.231 164.981 120.947 164.841 120.538 164.841C120.14 164.841 119.854 164.981 119.68 165.261C119.509 165.538 119.424 165.852 119.424 166.205ZM112.47 160.159V159.545C112.47 159.121 112.557 158.733 112.731 158.381C112.909 158.025 113.167 157.741 113.504 157.528C113.845 157.312 114.258 157.205 114.742 157.205C115.235 157.205 115.648 157.312 115.981 157.528C116.314 157.741 116.566 158.025 116.737 158.381C116.907 158.733 116.992 159.121 116.992 159.545V160.159C116.992 160.583 116.905 160.973 116.731 161.33C116.561 161.682 116.307 161.966 115.97 162.182C115.636 162.394 115.227 162.5 114.742 162.5C114.25 162.5 113.835 162.394 113.498 162.182C113.161 161.966 112.905 161.682 112.731 161.33C112.557 160.973 112.47 160.583 112.47 160.159ZM113.629 159.545V160.159C113.629 160.511 113.712 160.828 113.879 161.108C114.045 161.384 114.333 161.523 114.742 161.523C115.14 161.523 115.42 161.384 115.583 161.108C115.75 160.828 115.833 160.511 115.833 160.159V159.545C115.833 159.193 115.754 158.879 115.595 158.602C115.436 158.322 115.151 158.182 114.742 158.182C114.345 158.182 114.059 158.322 113.884 158.602C113.714 158.879 113.629 159.193 113.629 159.545ZM112.901 169L120.901 157.364H122.197L114.197 169H112.901ZM127.9 163.182C127.9 164.614 127.712 165.932 127.337 167.136C126.966 168.337 126.434 169.443 125.741 170.455H124.559C124.831 170.08 125.085 169.617 125.32 169.068C125.559 168.523 125.767 167.924 125.945 167.273C126.123 166.617 126.261 165.941 126.36 165.244C126.462 164.544 126.513 163.856 126.513 163.182C126.513 162.28 126.426 161.366 126.252 160.438C126.078 159.509 125.843 158.648 125.547 157.852C125.252 157.057 124.922 156.409 124.559 155.909H125.741C126.434 156.92 126.966 158.028 127.337 159.233C127.712 160.434 127.9 161.75 127.9 163.182Z" fill="#00DE73"/>
<path fill-rule="evenodd" clip-rule="evenodd" d="M277.524 41.7406C273.039 41.7406 269.209 42.4184 269.209 45.1344C269.209 47.8492 273.014 48.5527 277.524 48.5527C282.008 48.5527 285.838 47.8737 285.838 45.1589C285.838 42.4441 282.033 41.7406 277.524 41.7406Z" stroke="#ADB3CC" stroke-width="1.5" stroke-linecap="round" stroke-linejoin="round"/>
<path fill-rule="evenodd" clip-rule="evenodd" d="M277.524 37.8669C280.482 37.8669 282.853 35.495 282.853 32.5375C282.853 29.5789 280.482 27.2082 277.524 27.2082C274.566 27.2082 272.194 29.5789 272.194 32.5375C272.194 35.495 274.566 37.8669 277.524 37.8669Z" stroke="#ADB3CC" stroke-width="1.5" stroke-linecap="round" stroke-linejoin="round"/>
<path d="M288.405 34.1139V38.7923" stroke="#ADB3CC" stroke-width="1.5" stroke-linecap="round" stroke-linejoin="round"/>
<path d="M290.792 36.453H286.02" stroke="#ADB3CC" stroke-width="1.5" stroke-linecap="round" stroke-linejoin="round"/>
</svg>
