<svg width="318" height="197" viewBox="0 0 318 197" fill="none" xmlns="http://www.w3.org/2000/svg">
<rect width="318" height="197" rx="12" fill="#1A1E30"/>
<path d="M25.7614 43V28.4545H30.6761C31.8172 28.4545 32.75 28.6605 33.4744 29.0724C34.2036 29.4796 34.7434 30.0312 35.0938 30.7273C35.4441 31.4233 35.6193 32.1998 35.6193 33.0568C35.6193 33.9138 35.4441 34.6927 35.0938 35.3935C34.7481 36.0942 34.2131 36.6529 33.4886 37.0696C32.7642 37.4815 31.8362 37.6875 30.7045 37.6875H27.1818V36.125H30.6477C31.429 36.125 32.0563 35.9901 32.5298 35.7202C33.0033 35.4503 33.3466 35.0857 33.5597 34.6264C33.7775 34.1624 33.8864 33.6392 33.8864 33.0568C33.8864 32.4744 33.7775 31.9536 33.5597 31.4943C33.3466 31.035 33.0009 30.6752 32.5227 30.4148C32.0445 30.1496 31.41 30.017 30.6193 30.017H27.5227V43H25.7614ZM41.0396 43.2557C40.3483 43.2557 39.721 43.1255 39.1575 42.8651C38.5941 42.5999 38.1466 42.2188 37.8152 41.7216C37.4838 41.2197 37.318 40.6136 37.318 39.9034C37.318 39.2784 37.4411 38.7718 37.6874 38.3835C37.9336 37.9905 38.2626 37.6828 38.6746 37.4602C39.0865 37.2377 39.5411 37.072 40.0382 36.9631C40.5401 36.8494 41.0444 36.7595 41.551 36.6932C42.2139 36.608 42.7513 36.544 43.1632 36.5014C43.5799 36.4541 43.8829 36.3759 44.0723 36.267C44.2664 36.1581 44.3635 35.9687 44.3635 35.6989V35.642C44.3635 34.9413 44.1717 34.3968 43.7882 34.0085C43.4094 33.6203 42.8341 33.4261 42.0624 33.4261C41.2622 33.4261 40.6348 33.6013 40.1803 33.9517C39.7257 34.3021 39.4061 34.6761 39.2214 35.0739L37.6305 34.5057C37.9146 33.8428 38.2934 33.3267 38.7669 32.9574C39.2451 32.5833 39.766 32.3229 40.3294 32.1761C40.8976 32.0246 41.4563 31.9489 42.0055 31.9489C42.3559 31.9489 42.7584 31.9915 43.2129 32.0767C43.6722 32.1572 44.1149 32.3253 44.5411 32.581C44.9719 32.8366 45.3294 33.2225 45.6135 33.7386C45.8976 34.2547 46.0396 34.946 46.0396 35.8125V43H44.3635V41.5227H44.2783C44.1646 41.7595 43.9752 42.0128 43.7101 42.2827C43.4449 42.5526 43.0922 42.7822 42.6518 42.9716C42.2115 43.161 41.6741 43.2557 41.0396 43.2557ZM41.2953 41.75C41.9582 41.75 42.5169 41.6198 42.9714 41.3594C43.4307 41.099 43.7764 40.7628 44.0084 40.3509C44.2451 39.9389 44.3635 39.5057 44.3635 39.0511V37.517C44.2925 37.6023 44.1362 37.6804 43.8947 37.7514C43.658 37.8177 43.3834 37.8769 43.0709 37.929C42.7631 37.9763 42.4625 38.0189 42.1689 38.0568C41.8801 38.09 41.6457 38.1184 41.4658 38.142C41.0302 38.1989 40.623 38.2912 40.2442 38.419C39.8701 38.5421 39.5671 38.7292 39.3351 38.9801C39.1078 39.2263 38.9942 39.5625 38.9942 39.9886C38.9942 40.571 39.2096 41.0114 39.6405 41.3097C40.0761 41.6032 40.6277 41.75 41.2953 41.75ZM53.1023 47.3182C52.2927 47.3182 51.5967 47.214 51.0143 47.0057C50.4319 46.8021 49.9466 46.5322 49.5583 46.196C49.1748 45.8646 48.8694 45.5095 48.6421 45.1307L49.9773 44.1932C50.1289 44.392 50.3206 44.6193 50.5526 44.875C50.7846 45.1354 51.1019 45.3603 51.5043 45.5497C51.9115 45.7438 52.4442 45.8409 53.1023 45.8409C53.983 45.8409 54.7098 45.6278 55.2827 45.2017C55.8557 44.7756 56.1421 44.108 56.1421 43.1989V40.983H56.0001C55.877 41.1818 55.7018 41.428 55.4745 41.7216C55.252 42.0104 54.93 42.2685 54.5086 42.4957C54.0919 42.7183 53.5285 42.8295 52.8183 42.8295C51.9376 42.8295 51.1469 42.6212 50.4461 42.2045C49.7501 41.7879 49.1985 41.1818 48.7913 40.3864C48.3888 39.5909 48.1876 38.625 48.1876 37.4886C48.1876 36.3712 48.3841 35.3982 48.7771 34.5696C49.1701 33.7363 49.7169 33.0923 50.4177 32.6378C51.1184 32.1785 51.9281 31.9489 52.8467 31.9489C53.5569 31.9489 54.1203 32.0672 54.537 32.304C54.9584 32.536 55.2804 32.8011 55.5029 33.0994C55.7302 33.393 55.9054 33.6345 56.0285 33.8239H56.1989V32.0909H57.8183V43.3125C57.8183 44.25 57.6052 45.0123 57.179 45.5994C56.7576 46.1913 56.1895 46.6245 55.4745 46.8991C54.7643 47.1785 53.9736 47.3182 53.1023 47.3182ZM53.0455 41.3239C53.7179 41.3239 54.2861 41.17 54.7501 40.8622C55.2141 40.5545 55.5668 40.1117 55.8083 39.5341C56.0498 38.9564 56.1705 38.2652 56.1705 37.4602C56.1705 36.6742 56.0522 35.9806 55.8154 35.3793C55.5787 34.7779 55.2283 34.3068 54.7643 33.9659C54.3003 33.625 53.7273 33.4545 53.0455 33.4545C52.3353 33.4545 51.7434 33.6345 51.27 33.9943C50.8012 34.3542 50.4485 34.8371 50.2117 35.4432C49.9797 36.0492 49.8637 36.7216 49.8637 37.4602C49.8637 38.2178 49.9821 38.8878 50.2188 39.4702C50.4603 40.0478 50.8154 40.5024 51.2842 40.8338C51.7576 41.1605 52.3448 41.3239 53.0455 41.3239ZM65.0603 43.2273C64.0092 43.2273 63.1024 42.9953 62.3401 42.5312C61.5826 42.0625 60.9978 41.4091 60.5859 40.571C60.1787 39.7282 59.9751 38.7481 59.9751 37.6307C59.9751 36.5133 60.1787 35.5284 60.5859 34.6761C60.9978 33.8191 61.5707 33.1515 62.3046 32.6733C63.0433 32.1903 63.905 31.9489 64.8898 31.9489C65.458 31.9489 66.0191 32.0436 66.5731 32.233C67.1271 32.4223 67.6313 32.7301 68.0859 33.1562C68.5404 33.5777 68.9026 34.1364 69.1725 34.8324C69.4424 35.5284 69.5773 36.3854 69.5773 37.4034V38.1136H61.1683V36.6648H67.8728C67.8728 36.0492 67.7497 35.5 67.5035 35.017C67.262 34.5341 66.9164 34.1529 66.4665 33.8736C66.0215 33.5942 65.4959 33.4545 64.8898 33.4545C64.2222 33.4545 63.6446 33.6203 63.1569 33.9517C62.6739 34.2784 62.3022 34.7045 62.0418 35.2301C61.7814 35.7557 61.6512 36.3191 61.6512 36.9205V37.8864C61.6512 38.7102 61.7933 39.4086 62.0773 39.9815C62.3662 40.5497 62.7663 40.983 63.2776 41.2812C63.789 41.5748 64.3832 41.7216 65.0603 41.7216C65.5006 41.7216 65.8984 41.66 66.2535 41.5369C66.6133 41.4091 66.9235 41.2197 67.1839 40.9688C67.4443 40.7131 67.6455 40.3958 67.7876 40.017L69.4069 40.4716C69.2364 41.0208 68.95 41.5038 68.5475 41.9205C68.1451 42.3324 67.6479 42.6544 67.056 42.8864C66.4642 43.1136 65.7989 43.2273 65.0603 43.2273ZM85.8725 32.0909L81.8384 43H80.1339L76.0998 32.0909H77.918L80.9293 40.7841H81.043L84.0543 32.0909H85.8725ZM87.6849 43V32.0909H89.361V43H87.6849ZM88.5371 30.2727C88.2104 30.2727 87.9287 30.1615 87.692 29.9389C87.46 29.7164 87.344 29.4489 87.344 29.1364C87.344 28.8239 87.46 28.5563 87.692 28.3338C87.9287 28.1113 88.2104 28 88.5371 28C88.8638 28 89.1432 28.1113 89.3752 28.3338C89.612 28.5563 89.7303 28.8239 89.7303 29.1364C89.7303 29.4489 89.612 29.7164 89.3752 29.9389C89.1432 30.1615 88.8638 30.2727 88.5371 30.2727ZM96.6048 43.2273C95.5537 43.2273 94.647 42.9953 93.8847 42.5312C93.1271 42.0625 92.5423 41.4091 92.1304 40.571C91.7232 39.7282 91.5196 38.7481 91.5196 37.6307C91.5196 36.5133 91.7232 35.5284 92.1304 34.6761C92.5423 33.8191 93.1152 33.1515 93.8491 32.6733C94.5878 32.1903 95.4495 31.9489 96.4344 31.9489C97.0026 31.9489 97.5636 32.0436 98.1176 32.233C98.6716 32.4223 99.1758 32.7301 99.6304 33.1562C100.085 33.5777 100.447 34.1364 100.717 34.8324C100.987 35.5284 101.122 36.3854 101.122 37.4034V38.1136H92.7128V36.6648H99.4173C99.4173 36.0492 99.2942 35.5 99.048 35.017C98.8065 34.5341 98.4609 34.1529 98.0111 33.8736C97.566 33.5942 97.0404 33.4545 96.4344 33.4545C95.7668 33.4545 95.1891 33.6203 94.7014 33.9517C94.2185 34.2784 93.8468 34.7045 93.5864 35.2301C93.3259 35.7557 93.1957 36.3191 93.1957 36.9205V37.8864C93.1957 38.7102 93.3378 39.4086 93.6219 39.9815C93.9107 40.5497 94.3108 40.983 94.8222 41.2812C95.3335 41.5748 95.9277 41.7216 96.6048 41.7216C97.0452 41.7216 97.4429 41.66 97.798 41.5369C98.1579 41.4091 98.468 41.2197 98.7284 40.9688C98.9888 40.7131 99.1901 40.3958 99.3321 40.017L100.951 40.4716C100.781 41.0208 100.495 41.5038 100.092 41.9205C99.6896 42.3324 99.1924 42.6544 98.6006 42.8864C98.0087 43.1136 97.3435 43.2273 96.6048 43.2273ZM105.743 43L102.419 32.0909H104.181L106.539 40.4432H106.652L108.982 32.0909H110.772L113.073 40.4148H113.186L115.544 32.0909H117.306L113.982 43H112.334L109.948 34.6193H109.777L107.391 43H105.743ZM126.849 34.5341L125.343 34.9602C125.248 34.7093 125.109 34.4654 124.924 34.2287C124.744 33.9872 124.498 33.7884 124.186 33.6321C123.873 33.4759 123.473 33.3977 122.985 33.3977C122.318 33.3977 121.761 33.5516 121.316 33.8594C120.876 34.1624 120.656 34.5483 120.656 35.017C120.656 35.4337 120.807 35.7628 121.11 36.0043C121.413 36.2457 121.887 36.447 122.531 36.608L124.15 37.0057C125.125 37.2424 125.852 37.6046 126.33 38.0923C126.809 38.5753 127.048 39.1979 127.048 39.9602C127.048 40.5852 126.868 41.1439 126.508 41.6364C126.153 42.1288 125.656 42.517 125.016 42.8011C124.377 43.0852 123.634 43.2273 122.786 43.2273C121.674 43.2273 120.753 42.9858 120.024 42.5028C119.294 42.0199 118.833 41.3144 118.639 40.3864L120.23 39.9886C120.381 40.5758 120.668 41.0161 121.089 41.3097C121.515 41.6032 122.071 41.75 122.758 41.75C123.539 41.75 124.159 41.5843 124.619 41.2528C125.083 40.9167 125.315 40.5142 125.315 40.0455C125.315 39.6667 125.182 39.3494 124.917 39.0938C124.652 38.8333 124.245 38.6392 123.695 38.5114L121.877 38.0852C120.878 37.8485 120.144 37.4815 119.676 36.9844C119.212 36.4825 118.98 35.8551 118.98 35.1023C118.98 34.4867 119.152 33.9422 119.498 33.4688C119.848 32.9953 120.324 32.6236 120.926 32.3537C121.532 32.0838 122.218 31.9489 122.985 31.9489C124.065 31.9489 124.912 32.1856 125.528 32.6591C126.148 33.1326 126.588 33.7576 126.849 34.5341Z" fill="#ADB3CC"/>
<path d="M42.4134 122.577C39.6671 122.577 37.2093 122.062 35.0398 121.032C32.8703 119.988 31.147 118.56 29.87 116.748C28.6068 114.935 27.9339 112.862 27.8516 110.528H35.2663C35.4036 112.258 36.152 113.672 37.5114 114.771C38.8707 115.855 40.5047 116.398 42.4134 116.398C43.91 116.398 45.242 116.054 46.4091 115.368C47.5762 114.681 48.4962 113.727 49.169 112.505C49.8419 111.283 50.1714 109.889 50.1577 108.324C50.1714 106.731 49.835 105.317 49.1484 104.081C48.4619 102.845 47.5213 101.877 46.3267 101.177C45.1321 100.463 43.759 100.106 42.2074 100.106C40.9441 100.092 39.7015 100.326 38.4794 100.806C37.2573 101.287 36.2893 101.918 35.5753 102.701L28.6754 101.568L30.8793 79.8182H55.348V86.2031H37.2024L35.9872 97.3871H36.2344C37.017 96.4671 38.1224 95.705 39.5504 95.1009C40.9785 94.483 42.5438 94.174 44.2464 94.174C46.8004 94.174 49.0798 94.7782 51.0845 95.9865C53.0893 97.1811 54.6683 98.8288 55.8217 100.93C56.9751 103.031 57.5518 105.433 57.5518 108.138C57.5518 110.926 56.9065 113.411 55.6158 115.594C54.3388 117.764 52.5606 119.473 50.2812 120.723C48.0156 121.959 45.393 122.577 42.4134 122.577ZM78.286 122.577C75.224 122.577 72.5052 122.062 70.1298 121.032C67.768 120.002 65.9143 118.595 64.5687 116.81C63.2368 115.011 62.5777 112.972 62.5914 110.692C62.5777 108.921 62.9622 107.294 63.7448 105.811C64.5275 104.328 65.5848 103.092 66.9167 102.104C68.2623 101.101 69.759 100.463 71.4068 100.188V99.8999C69.2373 99.4193 67.4797 98.3139 66.134 96.5838C64.8021 94.84 64.143 92.8284 64.1568 90.549C64.143 88.3795 64.7472 86.4434 65.9693 84.7408C67.1913 83.0381 68.8665 81.6993 70.9948 80.7244C73.1231 79.7358 75.5535 79.2415 78.286 79.2415C80.991 79.2415 83.4008 79.7358 85.5154 80.7244C87.6437 81.6993 89.3189 83.0381 90.541 84.7408C91.7768 86.4434 92.3947 88.3795 92.3947 90.549C92.3947 92.8284 91.715 94.84 90.3556 96.5838C89.01 98.3139 87.273 99.4193 85.1447 99.8999V100.188C86.7924 100.463 88.2754 101.101 89.5936 102.104C90.9255 103.092 91.9828 104.328 92.7654 105.811C93.5618 107.294 93.96 108.921 93.96 110.692C93.96 112.972 93.2872 115.011 91.9416 116.81C90.5959 118.595 88.7422 120.002 86.3805 121.032C84.0325 122.062 81.3343 122.577 78.286 122.577ZM78.286 116.686C79.8651 116.686 81.2382 116.418 82.4053 115.883C83.5725 115.334 84.4787 114.565 85.1241 113.576C85.7695 112.587 86.099 111.448 86.1127 110.157C86.099 108.811 85.7489 107.624 85.0623 106.594C84.3895 105.55 83.4626 104.733 82.2818 104.143C81.1146 103.552 79.7827 103.257 78.286 103.257C76.7756 103.257 75.43 103.552 74.2491 104.143C73.0682 104.733 72.1345 105.55 71.448 106.594C70.7751 107.624 70.4456 108.811 70.4593 110.157C70.4456 111.448 70.7614 112.587 71.4068 113.576C72.0521 114.551 72.9584 115.313 74.1255 115.862C75.3064 116.411 76.6932 116.686 78.286 116.686ZM78.286 97.4695C79.5767 97.4695 80.7164 97.2086 81.7051 96.6868C82.7074 96.165 83.497 95.4373 84.0737 94.5036C84.6504 93.5698 84.9456 92.492 84.9593 91.2699C84.9456 90.0616 84.6572 89.0043 84.0943 88.098C83.5313 87.178 82.7486 86.4709 81.7463 85.9766C80.7439 85.4685 79.5905 85.2145 78.286 85.2145C76.9541 85.2145 75.7801 85.4685 74.764 85.9766C73.7616 86.4709 72.979 87.178 72.416 88.098C71.8668 89.0043 71.599 90.0616 71.6127 91.2699C71.599 92.492 71.8736 93.5698 72.4366 94.5036C73.0133 95.4235 73.8028 96.1513 74.8052 96.6868C75.8213 97.2086 76.9816 97.4695 78.286 97.4695ZM115.163 122.803C111.771 122.803 108.86 121.945 106.43 120.229C104.013 118.499 102.153 116.006 100.848 112.752C99.5574 109.484 98.9121 105.55 98.9121 100.95C98.9258 96.3504 99.578 92.437 100.869 89.2102C102.173 85.9697 104.034 83.4981 106.45 81.7955C108.881 80.0928 111.785 79.2415 115.163 79.2415C118.541 79.2415 121.445 80.0928 123.875 81.7955C126.306 83.4981 128.166 85.9697 129.457 89.2102C130.761 92.4508 131.413 96.3641 131.413 100.95C131.413 105.564 130.761 109.505 129.457 112.773C128.166 116.027 126.306 118.512 123.875 120.229C121.458 121.945 118.554 122.803 115.163 122.803ZM115.163 116.357C117.799 116.357 119.879 115.059 121.404 112.464C122.941 109.855 123.71 106.017 123.71 100.95C123.71 97.5999 123.36 94.785 122.66 92.5057C121.96 90.2263 120.971 88.5099 119.694 87.3565C118.417 86.1894 116.907 85.6058 115.163 85.6058C112.54 85.6058 110.467 86.9103 108.943 89.5192C107.418 92.1143 106.65 95.9247 106.636 100.95C106.622 104.314 106.958 107.143 107.645 109.436C108.345 111.729 109.334 113.459 110.611 114.626C111.888 115.78 113.405 116.357 115.163 116.357ZM140.13 122.453C138.88 122.453 137.809 122.014 136.916 121.135C136.024 120.256 135.585 119.185 135.598 117.922C135.585 116.686 136.024 115.629 136.916 114.75C137.809 113.871 138.88 113.432 140.13 113.432C141.338 113.432 142.388 113.871 143.281 114.75C144.187 115.629 144.647 116.686 144.661 117.922C144.647 118.759 144.427 119.522 144.002 120.208C143.59 120.895 143.041 121.444 142.354 121.856C141.681 122.254 140.94 122.453 140.13 122.453ZM165.271 122.577C162.525 122.577 160.067 122.062 157.898 121.032C155.728 119.988 154.005 118.56 152.728 116.748C151.465 114.935 150.792 112.862 150.71 110.528H158.124C158.262 112.258 159.01 113.672 160.369 114.771C161.729 115.855 163.363 116.398 165.271 116.398C166.768 116.398 168.1 116.054 169.267 115.368C170.434 114.681 171.354 113.727 172.027 112.505C172.7 111.283 173.029 109.889 173.016 108.324C173.029 106.731 172.693 105.317 172.006 104.081C171.32 102.845 170.379 101.877 169.185 101.177C167.99 100.463 166.617 100.106 165.065 100.106C163.802 100.092 162.56 100.326 161.337 100.806C160.115 101.287 159.147 101.918 158.433 102.701L151.533 101.568L153.737 79.8182H178.206V86.2031H160.06L158.845 97.3871H159.092C159.875 96.4671 160.98 95.705 162.408 95.1009C163.837 94.483 165.402 94.174 167.104 94.174C169.658 94.174 171.938 94.7782 173.943 95.9865C175.947 97.1811 177.526 98.8288 178.68 100.93C179.833 103.031 180.41 105.433 180.41 108.138C180.41 110.926 179.765 113.411 178.474 115.594C177.197 117.764 175.419 119.473 173.139 120.723C170.874 121.959 168.251 122.577 165.271 122.577ZM186.562 122V79.8182H194.203V99.1996H194.718L211.175 79.8182H220.505L204.192 98.7464L220.649 122H211.463L198.878 103.916L194.203 109.436V122H186.562Z" fill="#17B1EA"/>
<path d="M28.6364 166.955V159.455H29.9091V166.955H28.6364ZM25.5227 163.841V162.568H33.0227V163.841H25.5227ZM34.8845 169V167.977L38.7255 163.773C39.1762 163.28 39.5474 162.852 39.8391 162.489C40.1308 162.121 40.3467 161.777 40.4868 161.455C40.6308 161.129 40.7027 160.788 40.7027 160.432C40.7027 160.023 40.6042 159.669 40.4073 159.369C40.2141 159.07 39.9489 158.839 39.6118 158.676C39.2747 158.513 38.8959 158.432 38.4755 158.432C38.0285 158.432 37.6383 158.525 37.305 158.71C36.9755 158.892 36.7198 159.148 36.538 159.477C36.3599 159.807 36.2709 160.193 36.2709 160.636H34.93C34.93 159.955 35.0872 159.356 35.4016 158.841C35.716 158.326 36.144 157.924 36.6857 157.636C37.2311 157.348 37.8429 157.205 38.5209 157.205C39.2027 157.205 39.8069 157.348 40.3334 157.636C40.8599 157.924 41.2728 158.312 41.572 158.801C41.8713 159.29 42.0209 159.833 42.0209 160.432C42.0209 160.86 41.9433 161.278 41.788 161.688C41.6364 162.093 41.3713 162.545 40.9925 163.045C40.6175 163.542 40.0967 164.148 39.43 164.864L36.8164 167.659V167.75H42.2255V169H34.8845ZM48.343 157.364V169H46.9339V158.841H46.8657L44.0248 160.727V159.295L46.9339 157.364H48.343ZM55.165 169.159C54.3089 169.159 53.5798 168.926 52.9775 168.46C52.3752 167.991 51.915 167.311 51.5968 166.42C51.2786 165.527 51.1195 164.447 51.1195 163.182C51.1195 161.924 51.2786 160.85 51.5968 159.96C51.9188 159.066 52.3809 158.384 52.9832 157.915C53.5892 157.441 54.3165 157.205 55.165 157.205C56.0135 157.205 56.7389 157.441 57.3411 157.915C57.9472 158.384 58.4093 159.066 58.7275 159.96C59.0495 160.85 59.2105 161.924 59.2105 163.182C59.2105 164.447 59.0514 165.527 58.7332 166.42C58.415 167.311 57.9548 167.991 57.3525 168.46C56.7502 168.926 56.0211 169.159 55.165 169.159ZM55.165 167.909C56.0135 167.909 56.6726 167.5 57.1423 166.682C57.612 165.864 57.8468 164.697 57.8468 163.182C57.8468 162.174 57.7389 161.316 57.523 160.608C57.3108 159.9 57.004 159.36 56.6025 158.989C56.2048 158.617 55.7256 158.432 55.165 158.432C54.3241 158.432 53.6669 158.847 53.1934 159.676C52.7199 160.502 52.4832 161.67 52.4832 163.182C52.4832 164.189 52.5892 165.045 52.8014 165.75C53.0135 166.455 53.3184 166.991 53.7161 167.358C54.1177 167.725 54.6006 167.909 55.165 167.909ZM61.2541 169V157.364H62.6632V163.136H62.7995L68.0268 157.364H69.8677L64.9814 162.614L69.8677 169H68.1632L64.1177 163.591L62.6632 165.227V169H61.2541ZM75.847 163.182C75.847 161.75 76.0327 160.434 76.4039 159.233C76.7789 158.028 77.313 156.92 78.0061 155.909H79.188C78.9152 156.284 78.6595 156.746 78.4209 157.295C78.1861 157.841 77.9796 158.441 77.8016 159.097C77.6236 159.748 77.4834 160.422 77.3811 161.119C77.2827 161.816 77.2334 162.504 77.2334 163.182C77.2334 164.083 77.3205 164.998 77.4948 165.926C77.669 166.854 77.9039 167.716 78.1993 168.511C78.4948 169.307 78.8243 169.955 79.188 170.455H78.0061C77.313 169.443 76.7789 168.337 76.4039 167.136C76.0327 165.932 75.847 164.614 75.847 163.182ZM84.9148 157.364V169H83.5057V158.841H83.4376L80.5966 160.727V159.295L83.5057 157.364H84.9148ZM91.8051 169.159C91.3278 169.152 90.8505 169.061 90.3732 168.886C89.896 168.712 89.4604 168.419 89.0664 168.006C88.6725 167.589 88.3562 167.027 88.1176 166.318C87.8789 165.606 87.7596 164.712 87.7596 163.636C87.7596 162.606 87.8562 161.693 88.0494 160.898C88.2426 160.098 88.5229 159.426 88.8903 158.881C89.2577 158.331 89.7009 157.915 90.2198 157.631C90.7426 157.347 91.3316 157.205 91.9869 157.205C92.6384 157.205 93.2179 157.335 93.7255 157.597C94.2369 157.854 94.6535 158.214 94.9755 158.676C95.2975 159.138 95.5058 159.67 95.6005 160.273H94.2141C94.0854 159.75 93.8354 159.316 93.4641 158.972C93.0929 158.627 92.6005 158.455 91.9869 158.455C91.0854 158.455 90.3751 158.847 89.8562 159.631C89.341 160.415 89.0816 161.515 89.0778 162.932H89.1687C89.3808 162.61 89.6327 162.335 89.9244 162.108C90.2198 161.877 90.5456 161.699 90.9016 161.574C91.2577 161.449 91.6346 161.386 92.0323 161.386C92.699 161.386 93.3088 161.553 93.8619 161.886C94.4149 162.216 94.8581 162.672 95.1914 163.256C95.5248 163.835 95.6914 164.5 95.6914 165.25C95.6914 165.97 95.5304 166.629 95.2085 167.227C94.8865 167.822 94.4338 168.295 93.8505 168.648C93.271 168.996 92.5891 169.167 91.8051 169.159ZM91.8051 167.909C92.2823 167.909 92.7104 167.79 93.0891 167.551C93.4717 167.312 93.7729 166.992 93.9926 166.591C94.216 166.189 94.3278 165.742 94.3278 165.25C94.3278 164.769 94.2198 164.331 94.0039 163.938C93.7918 163.54 93.4982 163.223 93.1232 162.989C92.752 162.754 92.3278 162.636 91.8505 162.636C91.4907 162.636 91.1554 162.708 90.8448 162.852C90.5342 162.992 90.2615 163.186 90.0266 163.432C89.7956 163.678 89.6138 163.96 89.4812 164.278C89.3486 164.593 89.2823 164.924 89.2823 165.273C89.2823 165.735 89.3903 166.167 89.6062 166.568C89.8259 166.97 90.1251 167.294 90.5039 167.54C90.8865 167.786 91.3202 167.909 91.8051 167.909ZM99.0817 167.409L98.9907 168.023C98.9263 168.455 98.8279 168.917 98.6953 169.409C98.5665 169.902 98.432 170.366 98.2919 170.801C98.1517 171.237 98.0362 171.583 97.9453 171.841H96.9226C96.9718 171.598 97.0362 171.278 97.1157 170.881C97.1953 170.483 97.2748 170.038 97.3544 169.545C97.4377 169.057 97.5059 168.557 97.5589 168.045L97.6271 167.409H99.0817ZM101.223 169V167.977L105.064 163.773C105.515 163.28 105.886 162.852 106.178 162.489C106.47 162.121 106.685 161.777 106.826 161.455C106.97 161.129 107.041 160.788 107.041 160.432C107.041 160.023 106.943 159.669 106.746 159.369C106.553 159.07 106.288 158.839 105.951 158.676C105.613 158.513 105.235 158.432 104.814 158.432C104.367 158.432 103.977 158.525 103.644 158.71C103.314 158.892 103.059 159.148 102.877 159.477C102.699 159.807 102.61 160.193 102.61 160.636H101.269C101.269 159.955 101.426 159.356 101.74 158.841C102.055 158.326 102.483 157.924 103.024 157.636C103.57 157.348 104.182 157.205 104.86 157.205C105.541 157.205 106.146 157.348 106.672 157.636C107.199 157.924 107.612 158.312 107.911 158.801C108.21 159.29 108.36 159.833 108.36 160.432C108.36 160.86 108.282 161.278 108.127 161.688C107.975 162.093 107.71 162.545 107.331 163.045C106.956 163.542 106.435 164.148 105.769 164.864L103.155 167.659V167.75H108.564V169H101.223ZM114.386 169.159C113.53 169.159 112.801 168.926 112.199 168.46C111.596 167.991 111.136 167.311 110.818 166.42C110.5 165.527 110.341 164.447 110.341 163.182C110.341 161.924 110.5 160.85 110.818 159.96C111.14 159.066 111.602 158.384 112.204 157.915C112.81 157.441 113.538 157.205 114.386 157.205C115.235 157.205 115.96 157.441 116.562 157.915C117.168 158.384 117.631 159.066 117.949 159.96C118.271 160.85 118.432 161.924 118.432 163.182C118.432 164.447 118.273 165.527 117.954 166.42C117.636 167.311 117.176 167.991 116.574 168.46C115.971 168.926 115.242 169.159 114.386 169.159ZM114.386 167.909C115.235 167.909 115.894 167.5 116.364 166.682C116.833 165.864 117.068 164.697 117.068 163.182C117.068 162.174 116.96 161.316 116.744 160.608C116.532 159.9 116.225 159.36 115.824 158.989C115.426 158.617 114.947 158.432 114.386 158.432C113.545 158.432 112.888 158.847 112.415 159.676C111.941 160.502 111.704 161.67 111.704 163.182C111.704 164.189 111.81 165.045 112.023 165.75C112.235 166.455 112.54 166.991 112.937 167.358C113.339 167.725 113.822 167.909 114.386 167.909ZM126.203 166.818V166.205C126.203 165.78 126.29 165.392 126.464 165.04C126.642 164.684 126.9 164.4 127.237 164.188C127.578 163.972 127.99 163.864 128.475 163.864C128.968 163.864 129.381 163.972 129.714 164.188C130.047 164.4 130.299 164.684 130.47 165.04C130.64 165.392 130.725 165.78 130.725 166.205V166.818C130.725 167.242 130.638 167.633 130.464 167.989C130.294 168.341 130.04 168.625 129.703 168.841C129.369 169.053 128.96 169.159 128.475 169.159C127.983 169.159 127.568 169.053 127.231 168.841C126.894 168.625 126.638 168.341 126.464 167.989C126.29 167.633 126.203 167.242 126.203 166.818ZM127.362 166.205V166.818C127.362 167.17 127.445 167.487 127.612 167.767C127.778 168.044 128.066 168.182 128.475 168.182C128.873 168.182 129.153 168.044 129.316 167.767C129.483 167.487 129.566 167.17 129.566 166.818V166.205C129.566 165.852 129.487 165.538 129.328 165.261C129.169 164.981 128.884 164.841 128.475 164.841C128.078 164.841 127.792 164.981 127.617 165.261C127.447 165.538 127.362 165.852 127.362 166.205ZM120.407 160.159V159.545C120.407 159.121 120.494 158.733 120.669 158.381C120.847 158.025 121.104 157.741 121.441 157.528C121.782 157.312 122.195 157.205 122.68 157.205C123.172 157.205 123.585 157.312 123.919 157.528C124.252 157.741 124.504 158.025 124.674 158.381C124.845 158.733 124.93 159.121 124.93 159.545V160.159C124.93 160.583 124.843 160.973 124.669 161.33C124.498 161.682 124.244 161.966 123.907 162.182C123.574 162.394 123.165 162.5 122.68 162.5C122.187 162.5 121.773 162.394 121.436 162.182C121.098 161.966 120.843 161.682 120.669 161.33C120.494 160.973 120.407 160.583 120.407 160.159ZM121.566 159.545V160.159C121.566 160.511 121.65 160.828 121.816 161.108C121.983 161.384 122.271 161.523 122.68 161.523C123.078 161.523 123.358 161.384 123.521 161.108C123.687 160.828 123.771 160.511 123.771 160.159V159.545C123.771 159.193 123.691 158.879 123.532 158.602C123.373 158.322 123.089 158.182 122.68 158.182C122.282 158.182 121.996 158.322 121.822 158.602C121.651 158.879 121.566 159.193 121.566 159.545ZM120.839 169L128.839 157.364H130.134L122.134 169H120.839ZM135.837 163.182C135.837 164.614 135.65 165.932 135.275 167.136C134.903 168.337 134.371 169.443 133.678 170.455H132.496C132.769 170.08 133.023 169.617 133.258 169.068C133.496 168.523 133.705 167.924 133.883 167.273C134.061 166.617 134.199 165.941 134.297 165.244C134.4 164.544 134.451 163.856 134.451 163.182C134.451 162.28 134.364 161.366 134.189 160.438C134.015 159.509 133.78 158.648 133.485 157.852C133.189 157.057 132.86 156.409 132.496 155.909H133.678C134.371 156.92 134.903 158.028 135.275 159.233C135.65 160.434 135.837 161.75 135.837 163.182Z" fill="#00DE73"/>
<path fill-rule="evenodd" clip-rule="evenodd" d="M277.359 152.23C277.064 152.011 276.646 152.035 276.38 152.303L272.302 156.4L272.229 156.484C272.012 156.778 272.037 157.195 272.304 157.461L272.389 157.533C272.683 157.75 273.099 157.725 273.365 157.458L276.161 154.649V166.451L276.168 166.552C276.218 166.919 276.531 167.201 276.911 167.201C277.325 167.201 277.661 166.865 277.661 166.451V154.649L280.457 157.458L280.541 157.531C280.834 157.749 281.251 157.726 281.518 157.461C281.812 157.168 281.813 156.693 281.521 156.4L277.443 152.303L277.438 152.299C277.415 152.276 277.39 152.255 277.365 152.236L277.359 152.23ZM287.583 155.445C287.533 155.079 287.219 154.796 286.84 154.796C286.425 154.796 286.09 155.132 286.09 155.546V167.348L283.293 164.539L283.209 164.466C282.916 164.248 282.499 164.271 282.233 164.537C281.939 164.829 281.938 165.304 282.23 165.597L286.308 169.694L286.313 169.698C286.336 169.721 286.36 169.742 286.386 169.762L286.392 169.767C286.686 169.986 287.104 169.962 287.371 169.694L291.449 165.597L291.521 165.513C291.738 165.219 291.713 164.802 291.446 164.537C291.153 164.244 290.678 164.245 290.386 164.539L287.59 167.347V155.546L287.583 155.445Z" fill="#00DE73"/>
<path fill-rule="evenodd" clip-rule="evenodd" d="M280.336 28.6723L280.002 28.6667C275.171 28.6667 270.817 32.0769 268.404 37.6568C268.31 37.8759 268.31 38.1241 268.404 38.3432L268.572 38.7196C270.954 43.942 275.071 47.1751 279.664 47.3277L279.998 47.3333C284.829 47.3333 289.183 43.9231 291.596 38.3432C291.692 38.1213 291.69 37.8698 291.592 37.6489L291.43 37.2832C289.041 32.0511 284.922 28.8247 280.336 28.6723ZM280.01 30.4043L280.289 30.4103L280.601 30.4265C284.331 30.6906 287.761 33.4565 289.834 37.999L289.823 38.027C287.698 42.6672 284.15 45.4495 280.302 45.5891L280.005 45.5936L279.705 45.5896L279.394 45.5734C275.78 45.3174 272.447 42.7068 270.362 38.4197L270.165 37.999L270.348 37.6106C272.546 33.0687 276.14 30.4053 280.01 30.4043ZM279.999 33.4657C277.479 33.4657 275.437 35.4953 275.437 38.0002C275.437 40.5042 277.479 42.5336 279.999 42.5336C282.52 42.5336 284.563 40.5041 284.563 38.0002C284.563 35.4955 282.52 33.4657 279.999 33.4657ZM279.999 35.2044C281.554 35.2044 282.813 36.4558 282.813 38.0002C282.813 39.5436 281.553 40.7949 279.999 40.7949C278.446 40.7949 277.187 39.544 277.187 38.0002C277.187 36.4555 278.446 35.2044 279.999 35.2044Z" fill="#ADB3CC"/>
</svg>
