<svg width="318" height="197" viewBox="0 0 318 197" fill="none" xmlns="http://www.w3.org/2000/svg">
<rect width="318" height="197" rx="12" fill="#1A1E30"/>
<path d="M38.038 35.7273C38.038 37.2614 37.761 38.5871 37.207 39.7045C36.6531 40.822 35.8931 41.6837 34.9272 42.2898C33.9613 42.8958 32.8581 43.1989 31.6175 43.1989C30.377 43.1989 29.2738 42.8958 28.3079 42.2898C27.342 41.6837 26.582 40.822 26.0281 39.7045C25.4741 38.5871 25.1971 37.2614 25.1971 35.7273C25.1971 34.1932 25.4741 32.8674 26.0281 31.75C26.582 30.6326 27.342 29.7708 28.3079 29.1648C29.2738 28.5587 30.377 28.2557 31.6175 28.2557C32.8581 28.2557 33.9613 28.5587 34.9272 29.1648C35.8931 29.7708 36.6531 30.6326 37.207 31.75C37.761 32.8674 38.038 34.1932 38.038 35.7273ZM36.3335 35.7273C36.3335 34.4678 36.1228 33.4048 35.7013 32.5384C35.2847 31.6719 34.7189 31.0161 34.0039 30.571C33.2937 30.1259 32.4982 29.9034 31.6175 29.9034C30.7369 29.9034 29.939 30.1259 29.2241 30.571C28.5138 31.0161 27.948 31.6719 27.5266 32.5384C27.11 33.4048 26.9016 34.4678 26.9016 35.7273C26.9016 36.9867 27.11 38.0497 27.5266 38.9162C27.948 39.7827 28.5138 40.4384 29.2241 40.8835C29.939 41.3286 30.7369 41.5511 31.6175 41.5511C32.4982 41.5511 33.2937 41.3286 34.0039 40.8835C34.7189 40.4384 35.2847 39.7827 35.7013 38.9162C36.1228 38.0497 36.3335 36.9867 36.3335 35.7273ZM42.4485 36.4375V43H40.7724V32.0909H42.3917V33.7955H42.5337C42.7894 33.2415 43.1777 32.7964 43.6985 32.4602C44.2193 32.1193 44.8917 31.9489 45.7156 31.9489C46.4542 31.9489 47.1005 32.1004 47.6545 32.4034C48.2085 32.7017 48.6393 33.1562 48.9471 33.767C49.2549 34.3731 49.4087 35.1402 49.4087 36.0682V43H47.7326V36.1818C47.7326 35.3248 47.5101 34.6572 47.065 34.179C46.6199 33.696 46.0091 33.4545 45.2326 33.4545C44.6976 33.4545 44.2193 33.5705 43.7979 33.8026C43.3813 34.0346 43.0522 34.3731 42.8107 34.8182C42.5692 35.2633 42.4485 35.803 42.4485 36.4375ZM54.1477 28.4545V43H52.4716V28.4545H54.1477ZM57.2177 43V32.0909H58.8938V43H57.2177ZM58.07 30.2727C57.7433 30.2727 57.4615 30.1615 57.2248 29.9389C56.9928 29.7164 56.8768 29.4489 56.8768 29.1364C56.8768 28.8239 56.9928 28.5563 57.2248 28.3338C57.4615 28.1113 57.7433 28 58.07 28C58.3967 28 58.676 28.1113 58.908 28.3338C59.1448 28.5563 59.2631 28.8239 59.2631 29.1364C59.2631 29.4489 59.1448 29.7164 58.908 29.9389C58.676 30.1615 58.3967 30.2727 58.07 30.2727ZM63.6399 36.4375V43H61.9638V32.0909H63.5831V33.7955H63.7251C63.9808 33.2415 64.3691 32.7964 64.8899 32.4602C65.4107 32.1193 66.0831 31.9489 66.907 31.9489C67.6456 31.9489 68.2919 32.1004 68.8459 32.4034C69.3999 32.7017 69.8307 33.1562 70.1385 33.767C70.4463 34.3731 70.6001 35.1402 70.6001 36.0682V43H68.924V36.1818C68.924 35.3248 68.7015 34.6572 68.2564 34.179C67.8113 33.696 67.2005 33.4545 66.424 33.4545C65.889 33.4545 65.4107 33.5705 64.9893 33.8026C64.5727 34.0346 64.2436 34.3731 64.0021 34.8182C63.7607 35.2633 63.6399 35.803 63.6399 36.4375ZM78.2369 43.2273C77.1857 43.2273 76.279 42.9953 75.5167 42.5312C74.7591 42.0625 74.1744 41.4091 73.7624 40.571C73.3552 39.7282 73.1516 38.7481 73.1516 37.6307C73.1516 36.5133 73.3552 35.5284 73.7624 34.6761C74.1744 33.8191 74.7473 33.1515 75.4812 32.6733C76.2198 32.1903 77.0816 31.9489 78.0664 31.9489C78.6346 31.9489 79.1957 32.0436 79.7496 32.233C80.3036 32.4223 80.8079 32.7301 81.2624 33.1562C81.717 33.5777 82.0792 34.1364 82.3491 34.8324C82.619 35.5284 82.7539 36.3854 82.7539 37.4034V38.1136H74.3448V36.6648H81.0494C81.0494 36.0492 80.9263 35.5 80.68 35.017C80.4386 34.5341 80.0929 34.1529 79.6431 33.8736C79.198 33.5942 78.6725 33.4545 78.0664 33.4545C77.3988 33.4545 76.8211 33.6203 76.3335 33.9517C75.8505 34.2784 75.4788 34.7045 75.2184 35.2301C74.958 35.7557 74.8278 36.3191 74.8278 36.9205V37.8864C74.8278 38.7102 74.9698 39.4086 75.2539 39.9815C75.5427 40.5497 75.9428 40.983 76.4542 41.2812C76.9656 41.5748 77.5598 41.7216 78.2369 41.7216C78.6772 41.7216 79.0749 41.66 79.43 41.5369C79.7899 41.4091 80.1 41.2197 80.3604 40.9688C80.6209 40.7131 80.8221 40.3958 80.9641 40.017L82.5835 40.4716C82.413 41.0208 82.1265 41.5038 81.7241 41.9205C81.3216 42.3324 80.8245 42.6544 80.2326 42.8864C79.6407 43.1136 78.9755 43.2273 78.2369 43.2273ZM97.8036 38.5398V32.0909H99.4798V43H97.8036V41.1534H97.69C97.4343 41.7074 97.0366 42.1785 96.4968 42.5668C95.957 42.9503 95.2752 43.142 94.4513 43.142C93.7695 43.142 93.1635 42.9929 92.6332 42.6946C92.1029 42.3916 91.6862 41.937 91.3832 41.331C91.0801 40.7202 90.9286 39.9508 90.9286 39.0227V32.0909H92.6048V38.9091C92.6048 39.7045 92.8273 40.339 93.2724 40.8125C93.7222 41.286 94.2951 41.5227 94.9911 41.5227C95.4078 41.5227 95.8316 41.4162 96.2624 41.2031C96.698 40.9901 97.0626 40.6634 97.3562 40.223C97.6545 39.7827 97.8036 39.2216 97.8036 38.5398ZM110.277 34.5341L108.771 34.9602C108.677 34.7093 108.537 34.4654 108.352 34.2287C108.172 33.9872 107.926 33.7884 107.614 33.6321C107.301 33.4759 106.901 33.3977 106.413 33.3977C105.746 33.3977 105.189 33.5516 104.744 33.8594C104.304 34.1624 104.084 34.5483 104.084 35.017C104.084 35.4337 104.235 35.7628 104.538 36.0043C104.841 36.2457 105.315 36.447 105.959 36.608L107.578 37.0057C108.554 37.2424 109.28 37.6046 109.759 38.0923C110.237 38.5753 110.476 39.1979 110.476 39.9602C110.476 40.5852 110.296 41.1439 109.936 41.6364C109.581 42.1288 109.084 42.517 108.445 42.8011C107.805 43.0852 107.062 43.2273 106.214 43.2273C105.102 43.2273 104.181 42.9858 103.452 42.5028C102.723 42.0199 102.261 41.3144 102.067 40.3864L103.658 39.9886C103.809 40.5758 104.096 41.0161 104.517 41.3097C104.943 41.6032 105.5 41.75 106.186 41.75C106.967 41.75 107.588 41.5843 108.047 41.2528C108.511 40.9167 108.743 40.5142 108.743 40.0455C108.743 39.6667 108.61 39.3494 108.345 39.0938C108.08 38.8333 107.673 38.6392 107.124 38.5114L105.305 38.0852C104.306 37.8485 103.572 37.4815 103.104 36.9844C102.64 36.4825 102.408 35.8551 102.408 35.1023C102.408 34.4867 102.58 33.9422 102.926 33.4688C103.277 32.9953 103.752 32.6236 104.354 32.3537C104.96 32.0838 105.646 31.9489 106.413 31.9489C107.493 31.9489 108.34 32.1856 108.956 32.6591C109.576 33.1326 110.017 33.7576 110.277 34.5341ZM117.573 43.2273C116.522 43.2273 115.615 42.9953 114.853 42.5312C114.095 42.0625 113.51 41.4091 113.098 40.571C112.691 39.7282 112.488 38.7481 112.488 37.6307C112.488 36.5133 112.691 35.5284 113.098 34.6761C113.51 33.8191 114.083 33.1515 114.817 32.6733C115.556 32.1903 116.417 31.9489 117.402 31.9489C117.971 31.9489 118.532 32.0436 119.086 32.233C119.64 32.4223 120.144 32.7301 120.598 33.1562C121.053 33.5777 121.415 34.1364 121.685 34.8324C121.955 35.5284 122.09 36.3854 122.09 37.4034V38.1136H113.681V36.6648H120.385C120.385 36.0492 120.262 35.5 120.016 35.017C119.775 34.5341 119.429 34.1529 118.979 33.8736C118.534 33.5942 118.008 33.4545 117.402 33.4545C116.735 33.4545 116.157 33.6203 115.669 33.9517C115.186 34.2784 114.815 34.7045 114.554 35.2301C114.294 35.7557 114.164 36.3191 114.164 36.9205V37.8864C114.164 38.7102 114.306 39.4086 114.59 39.9815C114.879 40.5497 115.279 40.983 115.79 41.2812C116.301 41.5748 116.896 41.7216 117.573 41.7216C118.013 41.7216 118.411 41.66 118.766 41.5369C119.126 41.4091 119.436 41.2197 119.696 40.9688C119.957 40.7131 120.158 40.3958 120.3 40.017L121.919 40.4716C121.749 41.0208 121.462 41.5038 121.06 41.9205C120.658 42.3324 120.16 42.6544 119.569 42.8864C118.977 43.1136 118.311 43.2273 117.573 43.2273ZM124.64 43V32.0909H126.259V33.7386H126.373C126.571 33.1989 126.931 32.7609 127.452 32.4247C127.973 32.0885 128.56 31.9205 129.213 31.9205C129.337 31.9205 129.49 31.9228 129.675 31.9276C129.86 31.9323 129.999 31.9394 130.094 31.9489V33.6534C130.037 33.6392 129.907 33.6179 129.703 33.5895C129.505 33.5563 129.294 33.5398 129.071 33.5398C128.541 33.5398 128.068 33.651 127.651 33.8736C127.239 34.0914 126.912 34.3944 126.671 34.7827C126.434 35.1662 126.316 35.6042 126.316 36.0966V43H124.64ZM139.808 34.5341L138.303 34.9602C138.208 34.7093 138.068 34.4654 137.884 34.2287C137.704 33.9872 137.457 33.7884 137.145 33.6321C136.832 33.4759 136.432 33.3977 135.945 33.3977C135.277 33.3977 134.721 33.5516 134.276 33.8594C133.835 34.1624 133.615 34.5483 133.615 35.017C133.615 35.4337 133.767 35.7628 134.07 36.0043C134.373 36.2457 134.846 36.447 135.49 36.608L137.109 37.0057C138.085 37.2424 138.812 37.6046 139.29 38.0923C139.768 38.5753 140.007 39.1979 140.007 39.9602C140.007 40.5852 139.827 41.1439 139.467 41.6364C139.112 42.1288 138.615 42.517 137.976 42.8011C137.337 43.0852 136.593 43.2273 135.746 43.2273C134.633 43.2273 133.712 42.9858 132.983 42.5028C132.254 42.0199 131.792 41.3144 131.598 40.3864L133.189 39.9886C133.34 40.5758 133.627 41.0161 134.048 41.3097C134.474 41.6032 135.031 41.75 135.717 41.75C136.499 41.75 137.119 41.5843 137.578 41.2528C138.042 40.9167 138.274 40.5142 138.274 40.0455C138.274 39.6667 138.142 39.3494 137.876 39.0938C137.611 38.8333 137.204 38.6392 136.655 38.5114L134.837 38.0852C133.838 37.8485 133.104 37.4815 132.635 36.9844C132.171 36.4825 131.939 35.8551 131.939 35.1023C131.939 34.4867 132.112 33.9422 132.457 33.4688C132.808 32.9953 133.284 32.6236 133.885 32.3537C134.491 32.0838 135.178 31.9489 135.945 31.9489C137.024 31.9489 137.872 32.1856 138.487 32.6591C139.107 33.1326 139.548 33.7576 139.808 34.5341Z" fill="#ADB3CC"/>
<path d="M44.9055 79.8182V122H37.2642V87.2535H37.017L27.1513 93.5561V86.5533L37.6349 79.8182H44.9055ZM60.9694 116.233L60.7017 118.499C60.5094 120.229 60.1662 121.986 59.6719 123.771C59.1913 125.57 58.6832 127.225 58.1477 128.735C57.6122 130.246 57.1797 131.433 56.8501 132.298H51.8246C52.0168 131.461 52.2777 130.321 52.6072 128.879C52.9505 127.438 53.28 125.817 53.5959 124.018C53.9117 122.22 54.1245 120.393 54.2344 118.54L54.3785 116.233H60.9694ZM81.4874 122.577C78.4253 122.577 75.7066 122.062 73.3311 121.032C70.9694 120.002 69.1157 118.595 67.77 116.81C66.4381 115.011 65.779 112.972 65.7927 110.692C65.779 108.921 66.1635 107.294 66.9462 105.811C67.7288 104.328 68.7861 103.092 70.118 102.104C71.4637 101.101 72.9604 100.463 74.6081 100.188V99.8999C72.4386 99.4193 70.681 98.3139 69.3354 96.5838C68.0034 94.84 67.3444 92.8284 67.3581 90.549C67.3444 88.3795 67.9485 86.4434 69.1706 84.7408C70.3927 83.0381 72.0678 81.6993 74.1962 80.7244C76.3245 79.7358 78.7549 79.2415 81.4874 79.2415C84.1924 79.2415 86.6022 79.7358 88.7168 80.7244C90.8451 81.6993 92.5203 83.0381 93.7423 84.7408C94.9781 86.4434 95.596 88.3795 95.596 90.549C95.596 92.8284 94.9163 94.84 93.557 96.5838C92.2113 98.3139 90.4743 99.4193 88.346 99.8999V100.188C89.9937 100.463 91.4767 101.101 92.7949 102.104C94.1268 103.092 95.1841 104.328 95.9668 105.811C96.7632 107.294 97.1614 108.921 97.1614 110.692C97.1614 112.972 96.4885 115.011 95.1429 116.81C93.7972 118.595 91.9436 120.002 89.5818 121.032C87.2338 122.062 84.5356 122.577 81.4874 122.577ZM81.4874 116.686C83.0664 116.686 84.4395 116.418 85.6067 115.883C86.7738 115.334 87.6801 114.565 88.3254 113.576C88.9708 112.587 89.3003 111.448 89.3141 110.157C89.3003 108.811 88.9502 107.624 88.2636 106.594C87.5908 105.55 86.664 104.733 85.4831 104.143C84.316 103.552 82.984 103.257 81.4874 103.257C79.9769 103.257 78.6313 103.552 77.4504 104.143C76.2695 104.733 75.3358 105.55 74.6493 106.594C73.9765 107.624 73.6469 108.811 73.6606 110.157C73.6469 111.448 73.9627 112.587 74.6081 113.576C75.2534 114.551 76.1597 115.313 77.3268 115.862C78.5077 116.411 79.8945 116.686 81.4874 116.686ZM81.4874 97.4695C82.7781 97.4695 83.9177 97.2086 84.9064 96.6868C85.9088 96.165 86.6983 95.4373 87.275 94.5036C87.8517 93.5698 88.1469 92.492 88.1606 91.2699C88.1469 90.0616 87.8586 89.0043 87.2956 88.098C86.7326 87.178 85.9499 86.4709 84.9476 85.9766C83.9452 85.4685 82.7918 85.2145 81.4874 85.2145C80.1554 85.2145 78.9814 85.4685 77.9653 85.9766C76.963 86.4709 76.1803 87.178 75.6173 88.098C75.0681 89.0043 74.8003 90.0616 74.8141 91.2699C74.8003 92.492 75.0749 93.5698 75.6379 94.5036C76.2146 95.4235 77.0042 96.1513 78.0065 96.6868C79.0226 97.2086 80.1829 97.4695 81.4874 97.4695ZM102.01 114.173V108.097L119.909 79.8182H124.976V88.4688H121.886L109.837 107.562V107.891H134.821V114.173H102.01ZM122.133 122V112.32L122.216 109.601V79.8182H129.424V122H122.133ZM155.689 122.577C153.67 122.563 151.7 122.213 149.778 121.526C147.855 120.826 146.125 119.693 144.587 118.128C143.049 116.549 141.827 114.455 140.921 111.846C140.015 109.223 139.569 105.976 139.582 102.104C139.582 98.4924 139.967 95.2725 140.736 92.4439C141.505 89.6153 142.61 87.2261 144.052 85.2763C145.494 83.3127 147.231 81.816 149.263 80.7862C151.309 79.7564 153.595 79.2415 156.121 79.2415C158.771 79.2415 161.119 79.7633 163.165 80.8068C165.225 81.8504 166.887 83.2784 168.15 85.0909C169.413 86.8897 170.196 88.9219 170.498 91.1875H162.98C162.596 89.5672 161.806 88.2765 160.611 87.3153C159.431 86.3404 157.934 85.853 156.121 85.853C153.197 85.853 150.945 87.1231 149.366 89.6634C147.8 92.2036 147.011 95.6913 146.997 100.126H147.285C147.958 98.9181 148.83 97.8814 149.901 97.0163C150.972 96.1513 152.181 95.4853 153.526 95.0185C154.886 94.5379 156.32 94.2976 157.831 94.2976C160.302 94.2976 162.52 94.888 164.484 96.0689C166.461 97.2498 168.026 98.8769 169.18 100.95C170.333 103.01 170.903 105.372 170.889 108.036C170.903 110.809 170.271 113.301 168.994 115.512C167.717 117.709 165.939 119.439 163.66 120.702C161.38 121.966 158.723 122.59 155.689 122.577ZM155.648 116.398C157.144 116.398 158.483 116.034 159.664 115.306C160.845 114.578 161.779 113.597 162.465 112.361C163.152 111.125 163.488 109.738 163.474 108.2C163.488 106.69 163.159 105.324 162.486 104.102C161.827 102.879 160.914 101.911 159.746 101.197C158.579 100.483 157.247 100.126 155.751 100.126C154.638 100.126 153.602 100.339 152.641 100.765C151.679 101.191 150.842 101.781 150.128 102.536C149.414 103.278 148.851 104.143 148.439 105.131C148.041 106.106 147.835 107.15 147.821 108.262C147.835 109.731 148.178 111.084 148.851 112.32C149.524 113.555 150.45 114.544 151.631 115.286C152.812 116.027 154.151 116.398 155.648 116.398Z" fill="#ADB3CC"/>
<path d="M28.6364 166.955V159.455H29.9091V166.955H28.6364ZM25.5227 163.841V162.568H33.0227V163.841H25.5227ZM39.0678 169.159C38.4011 169.159 37.8007 169.027 37.2666 168.761C36.7326 168.496 36.3045 168.133 35.9826 167.67C35.6606 167.208 35.4845 166.682 35.4541 166.091H36.8178C36.8708 166.617 37.1095 167.053 37.5337 167.398C37.9617 167.739 38.4731 167.909 39.0678 167.909C39.5451 167.909 39.9693 167.797 40.3405 167.574C40.7155 167.35 41.0091 167.044 41.2212 166.653C41.4371 166.259 41.5451 165.814 41.5451 165.318C41.5451 164.811 41.4333 164.358 41.2098 163.96C40.9901 163.559 40.6871 163.242 40.3007 163.011C39.9144 162.78 39.4731 162.663 38.9769 162.659C38.6208 162.655 38.2553 162.71 37.8803 162.824C37.5053 162.934 37.1966 163.076 36.9541 163.25L35.636 163.091L36.3405 157.364H42.386V158.614H37.5223L37.1132 162.045H37.1814C37.4201 161.856 37.7193 161.699 38.0791 161.574C38.439 161.449 38.814 161.386 39.2041 161.386C39.9163 161.386 40.5507 161.557 41.1076 161.898C41.6682 162.235 42.1076 162.697 42.4257 163.284C42.7477 163.871 42.9087 164.542 42.9087 165.295C42.9087 166.038 42.742 166.701 42.4087 167.284C42.0791 167.864 41.6246 168.322 41.0451 168.659C40.4655 168.992 39.8064 169.159 39.0678 169.159ZM48.7776 169.159C48.0276 169.159 47.3591 169.03 46.7719 168.773C46.1886 168.515 45.7246 168.157 45.3799 167.699C45.039 167.237 44.8534 166.701 44.8231 166.091H46.2549C46.2852 166.466 46.414 166.79 46.6413 167.062C46.8685 167.331 47.1659 167.54 47.5333 167.688C47.9007 167.835 48.3079 167.909 48.7549 167.909C49.2549 167.909 49.6981 167.822 50.0844 167.648C50.4708 167.473 50.7738 167.231 50.9935 166.92C51.2132 166.61 51.3231 166.25 51.3231 165.841C51.3231 165.413 51.217 165.036 51.0049 164.71C50.7928 164.381 50.4822 164.123 50.0731 163.938C49.664 163.752 49.164 163.659 48.5731 163.659H47.6413V162.409H48.5731C49.0352 162.409 49.4405 162.326 49.789 162.159C50.1413 161.992 50.4159 161.758 50.6128 161.455C50.8136 161.152 50.914 160.795 50.914 160.386C50.914 159.992 50.8269 159.65 50.6526 159.358C50.4784 159.066 50.2322 158.839 49.914 158.676C49.5996 158.513 49.2284 158.432 48.8003 158.432C48.3988 158.432 48.02 158.506 47.664 158.653C47.3117 158.797 47.0238 159.008 46.8003 159.284C46.5769 159.557 46.4556 159.886 46.4367 160.273H45.0731C45.0958 159.663 45.2795 159.129 45.6242 158.67C45.9689 158.208 46.4197 157.848 46.9765 157.591C47.5371 157.333 48.1526 157.205 48.8231 157.205C49.5428 157.205 50.1602 157.35 50.6753 157.642C51.1905 157.93 51.5863 158.311 51.8628 158.784C52.1394 159.258 52.2776 159.769 52.2776 160.318C52.2776 160.973 52.1053 161.532 51.7606 161.994C51.4197 162.456 50.9556 162.777 50.3685 162.955V163.045C51.1034 163.167 51.6772 163.479 52.0901 163.983C52.503 164.483 52.7094 165.102 52.7094 165.841C52.7094 166.473 52.5371 167.042 52.1924 167.545C51.8515 168.045 51.3856 168.439 50.7947 168.727C50.2038 169.015 49.5314 169.159 48.7776 169.159ZM58.5088 169.159C57.6527 169.159 56.9235 168.926 56.3213 168.46C55.719 167.991 55.2588 167.311 54.9406 166.42C54.6224 165.527 54.4633 164.447 54.4633 163.182C54.4633 161.924 54.6224 160.85 54.9406 159.96C55.2625 159.066 55.7247 158.384 56.3269 157.915C56.933 157.441 57.6603 157.205 58.5088 157.205C59.3572 157.205 60.0826 157.441 60.6849 157.915C61.2909 158.384 61.7531 159.066 62.0713 159.96C62.3932 160.85 62.5542 161.924 62.5542 163.182C62.5542 164.447 62.3951 165.527 62.0769 166.42C61.7588 167.311 61.2985 167.991 60.6963 168.46C60.094 168.926 59.3648 169.159 58.5088 169.159ZM58.5088 167.909C59.3572 167.909 60.0163 167.5 60.486 166.682C60.9557 165.864 61.1906 164.697 61.1906 163.182C61.1906 162.174 61.0826 161.316 60.8667 160.608C60.6546 159.9 60.3478 159.36 59.9463 158.989C59.5485 158.617 59.0694 158.432 58.5088 158.432C57.6678 158.432 57.0106 158.847 56.5372 159.676C56.0637 160.502 55.8269 161.67 55.8269 163.182C55.8269 164.189 55.933 165.045 56.1451 165.75C56.3572 166.455 56.6622 166.991 57.0599 167.358C57.4614 167.725 57.9444 167.909 58.5088 167.909ZM69.0733 163.182C69.0733 161.75 69.2589 160.434 69.6301 159.233C70.0051 158.028 70.5392 156.92 71.2324 155.909H72.4142C72.1415 156.284 71.8858 156.746 71.6472 157.295C71.4123 157.841 71.2059 158.441 71.0278 159.097C70.8498 159.748 70.7097 160.422 70.6074 161.119C70.5089 161.816 70.4597 162.504 70.4597 163.182C70.4597 164.083 70.5468 164.998 70.721 165.926C70.8953 166.854 71.1301 167.716 71.4256 168.511C71.721 169.307 72.0506 169.955 72.4142 170.455H71.2324C70.5392 169.443 70.0051 168.337 69.6301 167.136C69.2589 165.932 69.0733 164.614 69.0733 163.182ZM77.7774 169.159C76.9971 169.159 76.3077 169.021 75.7093 168.744C75.1146 168.464 74.6506 168.08 74.3172 167.591C73.9839 167.098 73.8191 166.538 73.8229 165.909C73.8191 165.417 73.9157 164.962 74.1127 164.545C74.3096 164.125 74.5786 163.775 74.9195 163.494C75.2642 163.21 75.6487 163.03 76.0729 162.955V162.886C75.5161 162.742 75.0729 162.43 74.7434 161.949C74.4138 161.464 74.2509 160.913 74.2547 160.295C74.2509 159.705 74.4006 159.176 74.7036 158.71C75.0066 158.244 75.4233 157.877 75.9536 157.608C76.4877 157.339 77.0956 157.205 77.7774 157.205C78.4517 157.205 79.054 157.339 79.5843 157.608C80.1146 157.877 80.5312 158.244 80.8343 158.71C81.1411 159.176 81.2964 159.705 81.3002 160.295C81.2964 160.913 81.1278 161.464 80.7945 161.949C80.4649 162.43 80.0274 162.742 79.482 162.886V162.955C79.9024 163.03 80.2812 163.21 80.6184 163.494C80.9555 163.775 81.2244 164.125 81.4252 164.545C81.6259 164.962 81.7282 165.417 81.732 165.909C81.7282 166.538 81.5577 167.098 81.2206 167.591C80.8873 168.08 80.4233 168.464 79.8286 168.744C79.2377 169.021 78.554 169.159 77.7774 169.159ZM77.7774 167.909C78.304 167.909 78.7585 167.824 79.1411 167.653C79.5237 167.483 79.8191 167.242 80.0274 166.932C80.2358 166.621 80.3418 166.258 80.3456 165.841C80.3418 165.402 80.2282 165.013 80.0047 164.676C79.7812 164.339 79.4763 164.074 79.0899 163.881C78.7074 163.687 78.2699 163.591 77.7774 163.591C77.2812 163.591 76.8381 163.687 76.4479 163.881C76.0615 164.074 75.7566 164.339 75.5331 164.676C75.3134 165.013 75.2055 165.402 75.2093 165.841C75.2055 166.258 75.3059 166.621 75.5104 166.932C75.7187 167.242 76.0161 167.483 76.4024 167.653C76.7888 167.824 77.2471 167.909 77.7774 167.909ZM77.7774 162.386C78.1941 162.386 78.5634 162.303 78.8854 162.136C79.2112 161.97 79.4668 161.737 79.6524 161.438C79.8381 161.138 79.9327 160.788 79.9365 160.386C79.9327 159.992 79.8399 159.65 79.6581 159.358C79.4763 159.062 79.2244 158.835 78.9024 158.676C78.5805 158.513 78.2055 158.432 77.7774 158.432C77.3418 158.432 76.9612 158.513 76.6354 158.676C76.3096 158.835 76.0577 159.062 75.8797 159.358C75.7017 159.65 75.6146 159.992 75.6184 160.386C75.6146 160.788 75.7036 161.138 75.8854 161.438C76.071 161.737 76.3267 161.97 76.6524 162.136C76.9782 162.303 77.3532 162.386 77.7774 162.386ZM85.2529 167.409L85.162 168.023C85.0976 168.455 84.9991 168.917 84.8665 169.409C84.7377 169.902 84.6033 170.366 84.4631 170.801C84.323 171.237 84.2074 171.583 84.1165 171.841H83.0938C83.143 171.598 83.2074 171.278 83.287 170.881C83.3665 170.483 83.4461 170.038 83.5256 169.545C83.609 169.057 83.6771 168.557 83.7302 168.045L83.7984 167.409H85.2529ZM90.8889 169.159C90.1389 169.159 89.4703 169.03 88.8832 168.773C88.2998 168.515 87.8358 168.157 87.4911 167.699C87.1502 167.237 86.9646 166.701 86.9343 166.091H88.3661C88.3964 166.466 88.5252 166.79 88.7525 167.062C88.9798 167.331 89.2771 167.54 89.6445 167.688C90.012 167.835 90.4192 167.909 90.8661 167.909C91.3661 167.909 91.8093 167.822 92.1957 167.648C92.582 167.473 92.8851 167.231 93.1048 166.92C93.3245 166.61 93.4343 166.25 93.4343 165.841C93.4343 165.413 93.3283 165.036 93.1161 164.71C92.904 164.381 92.5934 164.123 92.1843 163.938C91.7752 163.752 91.2752 163.659 90.6843 163.659H89.7525V162.409H90.6843C91.1464 162.409 91.5517 162.326 91.9002 162.159C92.2525 161.992 92.5271 161.758 92.7241 161.455C92.9248 161.152 93.0252 160.795 93.0252 160.386C93.0252 159.992 92.9381 159.65 92.7639 159.358C92.5896 159.066 92.3434 158.839 92.0252 158.676C91.7108 158.513 91.3396 158.432 90.9116 158.432C90.5101 158.432 90.1313 158.506 89.7752 158.653C89.423 158.797 89.1351 159.008 88.9116 159.284C88.6881 159.557 88.5669 159.886 88.548 160.273H87.1843C87.207 159.663 87.3908 159.129 87.7355 158.67C88.0802 158.208 88.5309 157.848 89.0877 157.591C89.6483 157.333 90.2639 157.205 90.9343 157.205C91.654 157.205 92.2714 157.35 92.7866 157.642C93.3017 157.93 93.6976 158.311 93.9741 158.784C94.2506 159.258 94.3889 159.769 94.3889 160.318C94.3889 160.973 94.2165 161.532 93.8718 161.994C93.5309 162.456 93.0669 162.777 92.4798 162.955V163.045C93.2146 163.167 93.7885 163.479 94.2014 163.983C94.6142 164.483 94.8207 165.102 94.8207 165.841C94.8207 166.473 94.6483 167.042 94.3036 167.545C93.9627 168.045 93.4968 168.439 92.9059 168.727C92.315 169.015 91.6427 169.159 90.8889 169.159ZM100.552 169.159C99.7715 169.159 99.0821 169.021 98.4836 168.744C97.8889 168.464 97.4249 168.08 97.0916 167.591C96.7583 167.098 96.5935 166.538 96.5973 165.909C96.5935 165.417 96.6901 164.962 96.887 164.545C97.084 164.125 97.353 163.775 97.6939 163.494C98.0386 163.21 98.423 163.03 98.8473 162.955V162.886C98.2905 162.742 97.8473 162.43 97.5177 161.949C97.1882 161.464 97.0253 160.913 97.0291 160.295C97.0253 159.705 97.1749 159.176 97.478 158.71C97.781 158.244 98.1977 157.877 98.728 157.608C99.262 157.339 99.87 157.205 100.552 157.205C101.226 157.205 101.828 157.339 102.359 157.608C102.889 157.877 103.306 158.244 103.609 158.71C103.915 159.176 104.071 159.705 104.075 160.295C104.071 160.913 103.902 161.464 103.569 161.949C103.239 162.43 102.802 162.742 102.256 162.886V162.955C102.677 163.03 103.056 163.21 103.393 163.494C103.73 163.775 103.999 164.125 104.2 164.545C104.4 164.962 104.503 165.417 104.506 165.909C104.503 166.538 104.332 167.098 103.995 167.591C103.662 168.08 103.198 168.464 102.603 168.744C102.012 169.021 101.328 169.159 100.552 169.159ZM100.552 167.909C101.078 167.909 101.533 167.824 101.915 167.653C102.298 167.483 102.593 167.242 102.802 166.932C103.01 166.621 103.116 166.258 103.12 165.841C103.116 165.402 103.003 165.013 102.779 164.676C102.556 164.339 102.251 164.074 101.864 163.881C101.482 163.687 101.044 163.591 100.552 163.591C100.056 163.591 99.6124 163.687 99.2223 163.881C98.8359 164.074 98.531 164.339 98.3075 164.676C98.0878 165.013 97.9799 165.402 97.9836 165.841C97.9799 166.258 98.0802 166.621 98.2848 166.932C98.4931 167.242 98.7905 167.483 99.1768 167.653C99.5632 167.824 100.022 167.909 100.552 167.909ZM100.552 162.386C100.968 162.386 101.338 162.303 101.66 162.136C101.986 161.97 102.241 161.737 102.427 161.438C102.612 161.138 102.707 160.788 102.711 160.386C102.707 159.992 102.614 159.65 102.433 159.358C102.251 159.062 101.999 158.835 101.677 158.676C101.355 158.513 100.98 158.432 100.552 158.432C100.116 158.432 99.7355 158.513 99.4098 158.676C99.084 158.835 98.8321 159.062 98.6541 159.358C98.4761 159.65 98.3889 159.992 98.3927 160.386C98.3889 160.788 98.478 161.138 98.6598 161.438C98.8454 161.737 99.1011 161.97 99.4268 162.136C99.7526 162.303 100.128 162.386 100.552 162.386ZM112.296 166.818V166.205C112.296 165.78 112.383 165.392 112.557 165.04C112.735 164.684 112.993 164.4 113.33 164.188C113.671 163.972 114.084 163.864 114.568 163.864C115.061 163.864 115.474 163.972 115.807 164.188C116.14 164.4 116.392 164.684 116.563 165.04C116.733 165.392 116.818 165.78 116.818 166.205V166.818C116.818 167.242 116.731 167.633 116.557 167.989C116.387 168.341 116.133 168.625 115.796 168.841C115.462 169.053 115.053 169.159 114.568 169.159C114.076 169.159 113.661 169.053 113.324 168.841C112.987 168.625 112.731 168.341 112.557 167.989C112.383 167.633 112.296 167.242 112.296 166.818ZM113.455 166.205V166.818C113.455 167.17 113.538 167.487 113.705 167.767C113.871 168.044 114.159 168.182 114.568 168.182C114.966 168.182 115.246 168.044 115.409 167.767C115.576 167.487 115.659 167.17 115.659 166.818V166.205C115.659 165.852 115.58 165.538 115.421 165.261C115.262 164.981 114.978 164.841 114.568 164.841C114.171 164.841 113.885 164.981 113.711 165.261C113.54 165.538 113.455 165.852 113.455 166.205ZM106.5 160.159V159.545C106.5 159.121 106.587 158.733 106.762 158.381C106.94 158.025 107.197 157.741 107.534 157.528C107.875 157.312 108.288 157.205 108.773 157.205C109.265 157.205 109.678 157.312 110.012 157.528C110.345 157.741 110.597 158.025 110.767 158.381C110.938 158.733 111.023 159.121 111.023 159.545V160.159C111.023 160.583 110.936 160.973 110.762 161.33C110.591 161.682 110.337 161.966 110 162.182C109.667 162.394 109.258 162.5 108.773 162.5C108.281 162.5 107.866 162.394 107.529 162.182C107.192 161.966 106.936 161.682 106.762 161.33C106.587 160.973 106.5 160.583 106.5 160.159ZM107.659 159.545V160.159C107.659 160.511 107.743 160.828 107.909 161.108C108.076 161.384 108.364 161.523 108.773 161.523C109.171 161.523 109.451 161.384 109.614 161.108C109.781 160.828 109.864 160.511 109.864 160.159V159.545C109.864 159.193 109.784 158.879 109.625 158.602C109.466 158.322 109.182 158.182 108.773 158.182C108.375 158.182 108.089 158.322 107.915 158.602C107.745 158.879 107.659 159.193 107.659 159.545ZM106.932 169L114.932 157.364H116.228L108.228 169H106.932ZM121.93 163.182C121.93 164.614 121.743 165.932 121.368 167.136C120.997 168.337 120.464 169.443 119.771 170.455H118.589C118.862 170.08 119.116 169.617 119.351 169.068C119.589 168.523 119.798 167.924 119.976 167.273C120.154 166.617 120.292 165.941 120.391 165.244C120.493 164.544 120.544 163.856 120.544 163.182C120.544 162.28 120.457 161.366 120.283 160.438C120.108 159.509 119.873 158.648 119.578 157.852C119.283 157.057 118.953 156.409 118.589 155.909H119.771C120.464 156.92 120.997 158.028 121.368 159.233C121.743 160.434 121.93 161.75 121.93 163.182Z" fill="#00DE73"/>
<path d="M274.452 41.245L277.944 36.7065L281.928 39.8354L285.345 35.4251" stroke="#ADB3CC" stroke-width="1.5" stroke-linecap="round" stroke-linejoin="round"/>
<circle cx="289.328" cy="28.9003" r="2.24256" stroke="#ADB3CC" stroke-width="1.5" stroke-linecap="round" stroke-linejoin="round"/>
<path d="M283.412 27.6402H274.933C271.42 27.6402 269.241 30.1283 269.241 33.6417V43.0711C269.241 46.5845 271.377 49.062 274.933 49.062H284.971C288.484 49.062 290.663 46.5845 290.663 43.0711V34.8591" stroke="#ADB3CC" stroke-width="1.5" stroke-linecap="round" stroke-linejoin="round"/>
</svg>
