<svg width="318" height="197" viewBox="0 0 318 197" fill="none" xmlns="http://www.w3.org/2000/svg">
<rect width="318" height="197" rx="12" fill="#1A1E30"/>
<path d="M25.7614 43V28.4545H30.8466C31.8598 28.4545 32.6955 28.6297 33.3537 28.9801C34.0118 29.3258 34.5019 29.7921 34.8239 30.3793C35.1458 30.9616 35.3068 31.608 35.3068 32.3182C35.3068 32.9432 35.1955 33.4593 34.973 33.8665C34.7552 34.2737 34.4664 34.5956 34.1065 34.8324C33.7514 35.0691 33.3655 35.2443 32.9489 35.358V35.5C33.3939 35.5284 33.8414 35.6847 34.2912 35.9688C34.741 36.2528 35.1174 36.66 35.4205 37.1903C35.7235 37.7206 35.875 38.3693 35.875 39.1364C35.875 39.8655 35.7093 40.5213 35.3778 41.1037C35.0464 41.6861 34.5232 42.1477 33.8082 42.4886C33.0933 42.8295 32.1629 43 31.017 43H25.7614ZM27.5227 41.4375H31.017C32.1676 41.4375 32.9844 41.215 33.4673 40.7699C33.955 40.3201 34.1989 39.7756 34.1989 39.1364C34.1989 38.6439 34.0734 38.1894 33.8224 37.7727C33.5715 37.3513 33.214 37.0152 32.75 36.7642C32.286 36.5085 31.7367 36.3807 31.1023 36.3807H27.5227V41.4375ZM27.5227 34.8466H30.7898C31.3201 34.8466 31.7983 34.7424 32.2244 34.5341C32.6553 34.3258 32.9962 34.0322 33.2472 33.6534C33.5028 33.2746 33.6307 32.8295 33.6307 32.3182C33.6307 31.679 33.4081 31.1368 32.9631 30.6918C32.518 30.242 31.8125 30.017 30.8466 30.017H27.5227V34.8466ZM42.5737 43.2273C41.5889 43.2273 40.7248 42.9929 39.9814 42.5241C39.2428 42.0554 38.6651 41.3996 38.2484 40.5568C37.8365 39.714 37.6305 38.7292 37.6305 37.6023C37.6305 36.4659 37.8365 35.474 38.2484 34.6264C38.6651 33.7789 39.2428 33.1207 39.9814 32.652C40.7248 32.1832 41.5889 31.9489 42.5737 31.9489C43.5586 31.9489 44.4203 32.1832 45.1589 32.652C45.9023 33.1207 46.48 33.7789 46.8919 34.6264C47.3086 35.474 47.5169 36.4659 47.5169 37.6023C47.5169 38.7292 47.3086 39.714 46.8919 40.5568C46.48 41.3996 45.9023 42.0554 45.1589 42.5241C44.4203 42.9929 43.5586 43.2273 42.5737 43.2273ZM42.5737 41.7216C43.3218 41.7216 43.9374 41.5298 44.4203 41.1463C44.9033 40.7628 45.2607 40.2585 45.4928 39.6335C45.7248 39.0085 45.8408 38.3314 45.8408 37.6023C45.8408 36.8731 45.7248 36.1937 45.4928 35.5639C45.2607 34.9342 44.9033 34.4252 44.4203 34.0369C43.9374 33.6487 43.3218 33.4545 42.5737 33.4545C41.8256 33.4545 41.2101 33.6487 40.7271 34.0369C40.2442 34.4252 39.8867 34.9342 39.6547 35.5639C39.4227 36.1937 39.3067 36.8731 39.3067 37.6023C39.3067 38.3314 39.4227 39.0085 39.6547 39.6335C39.8867 40.2585 40.2442 40.7628 40.7271 41.1463C41.2101 41.5298 41.8256 41.7216 42.5737 41.7216ZM56.5505 38.5398V32.0909H58.2266V43H56.5505V41.1534H56.4369C56.1812 41.7074 55.7835 42.1785 55.2437 42.5668C54.7039 42.9503 54.0221 43.142 53.1982 43.142C52.5164 43.142 51.9103 42.9929 51.38 42.6946C50.8497 42.3916 50.4331 41.937 50.13 41.331C49.827 40.7202 49.6755 39.9508 49.6755 39.0227V32.0909H51.3516V38.9091C51.3516 39.7045 51.5742 40.339 52.0192 40.8125C52.4691 41.286 53.042 41.5227 53.738 41.5227C54.1547 41.5227 54.5784 41.4162 55.0093 41.2031C55.4449 40.9901 55.8095 40.6634 56.1031 40.223C56.4014 39.7827 56.5505 39.2216 56.5505 38.5398ZM62.5727 36.4375V43H60.8966V32.0909H62.5159V33.7955H62.658C62.9136 33.2415 63.3019 32.7964 63.8227 32.4602C64.3436 32.1193 65.0159 31.9489 65.8398 31.9489C66.5784 31.9489 67.2247 32.1004 67.7787 32.4034C68.3327 32.7017 68.7635 33.1562 69.0713 33.767C69.3791 34.3731 69.533 35.1402 69.533 36.0682V43H67.8568V36.1818C67.8568 35.3248 67.6343 34.6572 67.1892 34.179C66.7441 33.696 66.1333 33.4545 65.3568 33.4545C64.8218 33.4545 64.3436 33.5705 63.9222 33.8026C63.5055 34.0346 63.1764 34.3731 62.9349 34.8182C62.6935 35.2633 62.5727 35.803 62.5727 36.4375ZM76.6276 43.2273C75.6049 43.2273 74.7242 42.9858 73.9856 42.5028C73.2469 42.0199 72.6788 41.3546 72.281 40.5071C71.8833 39.6596 71.6844 38.6913 71.6844 37.6023C71.6844 36.4943 71.888 35.5166 72.2952 34.669C72.7072 33.8168 73.2801 33.1515 74.014 32.6733C74.7526 32.1903 75.6144 31.9489 76.5992 31.9489C77.3663 31.9489 78.0576 32.0909 78.6731 32.375C79.2886 32.6591 79.7929 33.0568 80.1859 33.5682C80.5789 34.0795 80.8227 34.6761 80.9174 35.358H79.2413C79.1134 34.8608 78.8293 34.4205 78.389 34.0369C77.9534 33.6487 77.3663 33.4545 76.6276 33.4545C75.9742 33.4545 75.4013 33.625 74.9089 33.9659C74.4212 34.3021 74.04 34.7779 73.7654 35.3935C73.4955 36.0043 73.3606 36.7216 73.3606 37.5455C73.3606 38.3883 73.4932 39.1222 73.7583 39.7472C74.0282 40.3722 74.407 40.8575 74.8947 41.2031C75.3871 41.5488 75.9648 41.7216 76.6276 41.7216C77.0632 41.7216 77.4586 41.6458 77.8137 41.4943C78.1688 41.3428 78.4695 41.125 78.7157 40.8409C78.9619 40.5568 79.1371 40.2159 79.2413 39.8182H80.9174C80.8227 40.4621 80.5883 41.0421 80.2143 41.5582C79.845 42.0696 79.3549 42.4768 78.7441 42.7798C78.138 43.0781 77.4326 43.2273 76.6276 43.2273ZM87.5415 43.2273C86.4904 43.2273 85.5837 42.9953 84.8214 42.5312C84.0638 42.0625 83.479 41.4091 83.0671 40.571C82.6599 39.7282 82.4563 38.7481 82.4563 37.6307C82.4563 36.5133 82.6599 35.5284 83.0671 34.6761C83.479 33.8191 84.052 33.1515 84.7859 32.6733C85.5245 32.1903 86.3862 31.9489 87.3711 31.9489C87.9393 31.9489 88.5004 32.0436 89.0543 32.233C89.6083 32.4223 90.1126 32.7301 90.5671 33.1562C91.0217 33.5777 91.3839 34.1364 91.6538 34.8324C91.9237 35.5284 92.0586 36.3854 92.0586 37.4034V38.1136H83.6495V36.6648H90.354C90.354 36.0492 90.2309 35.5 89.9847 35.017C89.7433 34.5341 89.3976 34.1529 88.9478 33.8736C88.5027 33.5942 87.9772 33.4545 87.3711 33.4545C86.7035 33.4545 86.1258 33.6203 85.6381 33.9517C85.1552 34.2784 84.7835 34.7045 84.5231 35.2301C84.2627 35.7557 84.1325 36.3191 84.1325 36.9205V37.8864C84.1325 38.7102 84.2745 39.4086 84.5586 39.9815C84.8474 40.5497 85.2475 40.983 85.7589 41.2812C86.2702 41.5748 86.8645 41.7216 87.5415 41.7216C87.9819 41.7216 88.3796 41.66 88.7347 41.5369C89.0946 41.4091 89.4047 41.2197 89.6651 40.9688C89.9255 40.7131 90.1268 40.3958 90.2688 40.017L91.8881 40.4716C91.7177 41.0208 91.4312 41.5038 91.0288 41.9205C90.6263 42.3324 90.1291 42.6544 89.5373 42.8864C88.9454 43.1136 88.2802 43.2273 87.5415 43.2273ZM99.4333 43V32.0909H101.053V33.7386H101.166C101.365 33.1989 101.725 32.7609 102.246 32.4247C102.767 32.0885 103.354 31.9205 104.007 31.9205C104.13 31.9205 104.284 31.9228 104.469 31.9276C104.653 31.9323 104.793 31.9394 104.888 31.9489V33.6534C104.831 33.6392 104.701 33.6179 104.497 33.5895C104.298 33.5563 104.088 33.5398 103.865 33.5398C103.335 33.5398 102.861 33.651 102.445 33.8736C102.033 34.0914 101.706 34.3944 101.465 34.7827C101.228 35.1662 101.109 35.6042 101.109 36.0966V43H99.4333ZM109.685 43.2557C108.994 43.2557 108.366 43.1255 107.803 42.8651C107.239 42.5999 106.792 42.2188 106.461 41.7216C106.129 41.2197 105.963 40.6136 105.963 39.9034C105.963 39.2784 106.086 38.7718 106.333 38.3835C106.579 37.9905 106.908 37.6828 107.32 37.4602C107.732 37.2377 108.186 37.072 108.684 36.9631C109.185 36.8494 109.69 36.7595 110.196 36.6932C110.859 36.608 111.397 36.544 111.809 36.5014C112.225 36.4541 112.528 36.3759 112.718 36.267C112.912 36.1581 113.009 35.9687 113.009 35.6989V35.642C113.009 34.9413 112.817 34.3968 112.434 34.0085C112.055 33.6203 111.479 33.4261 110.708 33.4261C109.907 33.4261 109.28 33.6013 108.826 33.9517C108.371 34.3021 108.051 34.6761 107.867 35.0739L106.276 34.5057C106.56 33.8428 106.939 33.3267 107.412 32.9574C107.89 32.5833 108.411 32.3229 108.975 32.1761C109.543 32.0246 110.102 31.9489 110.651 31.9489C111.001 31.9489 111.404 31.9915 111.858 32.0767C112.318 32.1572 112.76 32.3253 113.186 32.581C113.617 32.8366 113.975 33.2225 114.259 33.7386C114.543 34.2547 114.685 34.946 114.685 35.8125V43H113.009V41.5227H112.924C112.81 41.7595 112.621 42.0128 112.355 42.2827C112.09 42.5526 111.738 42.7822 111.297 42.9716C110.857 43.161 110.319 43.2557 109.685 43.2557ZM109.941 41.75C110.604 41.75 111.162 41.6198 111.617 41.3594C112.076 41.099 112.422 40.7628 112.654 40.3509C112.89 39.9389 113.009 39.5057 113.009 39.0511V37.517C112.938 37.6023 112.782 37.6804 112.54 37.7514C112.303 37.8177 112.029 37.8769 111.716 37.929C111.408 37.9763 111.108 38.0189 110.814 38.0568C110.525 38.09 110.291 38.1184 110.111 38.142C109.675 38.1989 109.268 38.2912 108.889 38.419C108.515 38.5421 108.212 38.7292 107.98 38.9801C107.753 39.2263 107.639 39.5625 107.639 39.9886C107.639 40.571 107.855 41.0114 108.286 41.3097C108.721 41.6032 109.273 41.75 109.941 41.75ZM122.089 32.0909V33.5114H116.435V32.0909H122.089ZM118.083 29.4773H119.759V39.875C119.759 40.3485 119.828 40.7036 119.965 40.9403C120.107 41.1723 120.287 41.3286 120.505 41.4091C120.727 41.4848 120.962 41.5227 121.208 41.5227C121.393 41.5227 121.544 41.5133 121.662 41.4943C121.781 41.4706 121.875 41.4517 121.947 41.4375L122.287 42.9432C122.174 42.9858 122.015 43.0284 121.812 43.071C121.608 43.1184 121.35 43.142 121.037 43.142C120.564 43.142 120.1 43.0402 119.645 42.8366C119.196 42.633 118.822 42.3229 118.523 41.9062C118.23 41.4896 118.083 40.964 118.083 40.3295V29.4773ZM128.667 43.2273C127.615 43.2273 126.709 42.9953 125.946 42.5312C125.189 42.0625 124.604 41.4091 124.192 40.571C123.785 39.7282 123.581 38.7481 123.581 37.6307C123.581 36.5133 123.785 35.5284 124.192 34.6761C124.604 33.8191 125.177 33.1515 125.911 32.6733C126.65 32.1903 127.511 31.9489 128.496 31.9489C129.064 31.9489 129.625 32.0436 130.179 32.233C130.733 32.4223 131.238 32.7301 131.692 33.1562C132.147 33.5777 132.509 34.1364 132.779 34.8324C133.049 35.5284 133.184 36.3854 133.184 37.4034V38.1136H124.775V36.6648H131.479C131.479 36.0492 131.356 35.5 131.11 35.017C130.868 34.5341 130.523 34.1529 130.073 33.8736C129.628 33.5942 129.102 33.4545 128.496 33.4545C127.828 33.4545 127.251 33.6203 126.763 33.9517C126.28 34.2784 125.908 34.7045 125.648 35.2301C125.388 35.7557 125.257 36.3191 125.257 36.9205V37.8864C125.257 38.7102 125.4 39.4086 125.684 39.9815C125.972 40.5497 126.373 40.983 126.884 41.2812C127.395 41.5748 127.989 41.7216 128.667 41.7216C129.107 41.7216 129.505 41.66 129.86 41.5369C130.22 41.4091 130.53 41.2197 130.79 40.9688C131.051 40.7131 131.252 40.3958 131.394 40.017L133.013 40.4716C132.843 41.0208 132.556 41.5038 132.154 41.9205C131.751 42.3324 131.254 42.6544 130.662 42.8864C130.07 43.1136 129.405 43.2273 128.667 43.2273ZM143.061 34.5341L141.555 34.9602C141.46 34.7093 141.321 34.4654 141.136 34.2287C140.956 33.9872 140.71 33.7884 140.397 33.6321C140.085 33.4759 139.685 33.3977 139.197 33.3977C138.529 33.3977 137.973 33.5516 137.528 33.8594C137.088 34.1624 136.867 34.5483 136.867 35.017C136.867 35.4337 137.019 35.7628 137.322 36.0043C137.625 36.2457 138.098 36.447 138.742 36.608L140.362 37.0057C141.337 37.2424 142.064 37.6046 142.542 38.0923C143.02 38.5753 143.259 39.1979 143.259 39.9602C143.259 40.5852 143.08 41.1439 142.72 41.6364C142.365 42.1288 141.867 42.517 141.228 42.8011C140.589 43.0852 139.846 43.2273 138.998 43.2273C137.885 43.2273 136.964 42.9858 136.235 42.5028C135.506 42.0199 135.044 41.3144 134.85 40.3864L136.441 39.9886C136.593 40.5758 136.879 41.0161 137.301 41.3097C137.727 41.6032 138.283 41.75 138.97 41.75C139.751 41.75 140.371 41.5843 140.83 41.2528C141.294 40.9167 141.526 40.5142 141.526 40.0455C141.526 39.6667 141.394 39.3494 141.129 39.0938C140.864 38.8333 140.456 38.6392 139.907 38.5114L138.089 38.0852C137.09 37.8485 136.356 37.4815 135.887 36.9844C135.423 36.4825 135.191 35.8551 135.191 35.1023C135.191 34.4867 135.364 33.9422 135.71 33.4688C136.06 32.9953 136.536 32.6236 137.137 32.3537C137.743 32.0838 138.43 31.9489 139.197 31.9489C140.276 31.9489 141.124 32.1856 141.74 32.6591C142.36 33.1326 142.8 33.7576 143.061 34.5341Z" fill="#ADB3CC"/>
<path d="M44.9055 79.8182V122H37.2642V87.2535H37.017L27.1513 93.5561V86.5533L37.6349 79.8182H44.9055ZM69.1205 122.577C66.3743 122.577 63.9165 122.062 61.747 121.032C59.5775 119.988 57.8542 118.56 56.5772 116.748C55.314 114.935 54.6411 112.862 54.5588 110.528H61.9735C62.1108 112.258 62.8592 113.672 64.2186 114.771C65.5779 115.855 67.2119 116.398 69.1205 116.398C70.6172 116.398 71.9491 116.054 73.1163 115.368C74.2834 114.681 75.2034 113.727 75.8762 112.505C76.549 111.283 76.8786 109.889 76.8649 108.324C76.8786 106.731 76.5422 105.317 75.8556 104.081C75.1691 102.845 74.2285 101.877 73.0339 101.177C71.8393 100.463 70.4662 100.106 68.9146 100.106C67.6513 100.092 66.4087 100.326 65.1866 100.806C63.9645 101.287 62.9965 101.918 62.2825 102.701L55.3826 101.568L57.5864 79.8182H82.0552V86.2031H63.9096L62.6944 97.3871H62.9416C63.7242 96.4671 64.8296 95.705 66.2576 95.1009C67.6856 94.483 69.251 94.174 70.9536 94.174C73.5076 94.174 75.787 94.7782 77.7917 95.9865C79.7964 97.1811 81.3755 98.8288 82.5289 100.93C83.6823 103.031 84.259 105.433 84.259 108.138C84.259 110.926 83.6137 113.411 82.323 115.594C81.046 117.764 79.2678 119.473 76.9884 120.723C74.7228 121.959 72.1002 122.577 69.1205 122.577ZM93.2583 122.453C92.0088 122.453 90.9378 122.014 90.0452 121.135C89.1527 120.256 88.7133 119.185 88.7271 117.922C88.7133 116.686 89.1527 115.629 90.0452 114.75C90.9378 113.871 92.0088 113.432 93.2583 113.432C94.4666 113.432 95.5171 113.871 96.4096 114.75C97.3158 115.629 97.7758 116.686 97.7896 117.922C97.7758 118.759 97.5561 119.522 97.1305 120.208C96.7185 120.895 96.1693 121.444 95.4827 121.856C94.8099 122.254 94.0684 122.453 93.2583 122.453ZM103.483 114.173V108.097L121.382 79.8182H126.448V88.4688H123.359L111.31 107.562V107.891H136.293V114.173H103.483ZM123.606 122V112.32L123.688 109.601V79.8182H130.897V122H123.606ZM156.853 122.577C153.887 122.577 151.25 122.069 148.943 121.053C146.65 120.036 144.838 118.622 143.506 116.81C142.174 114.997 141.467 112.903 141.385 110.528H149.129C149.197 111.667 149.575 112.663 150.262 113.514C150.948 114.352 151.861 115.004 153.001 115.471C154.141 115.938 155.418 116.171 156.832 116.171C158.342 116.171 159.681 115.91 160.848 115.388C162.015 114.853 162.929 114.112 163.588 113.164C164.247 112.217 164.569 111.125 164.556 109.889C164.569 108.612 164.24 107.486 163.567 106.511C162.894 105.536 161.919 104.774 160.642 104.225C159.379 103.676 157.855 103.401 156.07 103.401H152.342V97.5107H156.07C157.539 97.5107 158.823 97.2566 159.921 96.7486C161.034 96.2405 161.906 95.5265 162.537 94.6065C163.169 93.6728 163.478 92.5949 163.464 91.3729C163.478 90.1783 163.21 89.1416 162.661 88.2628C162.125 87.3703 161.363 86.6768 160.375 86.1825C159.4 85.6882 158.253 85.441 156.935 85.441C155.644 85.441 154.45 85.6745 153.351 86.1413C152.253 86.6082 151.367 87.2741 150.694 88.1392C150.021 88.9905 149.664 90.0066 149.623 91.1875H142.27C142.325 88.8258 143.005 86.7524 144.309 84.9673C145.627 83.1686 147.385 81.768 149.582 80.7656C151.779 79.7495 154.244 79.2415 156.976 79.2415C159.791 79.2415 162.235 79.7701 164.309 80.8274C166.396 81.871 168.009 83.2784 169.149 85.0497C170.288 86.821 170.858 88.7777 170.858 90.9197C170.872 93.2952 170.172 95.2862 168.757 96.8928C167.357 98.4993 165.517 99.5497 163.237 100.044V100.374C166.203 100.786 168.476 101.884 170.055 103.669C171.648 105.44 172.437 107.644 172.424 110.281C172.424 112.642 171.751 114.757 170.405 116.624C169.073 118.478 167.233 119.933 164.885 120.991C162.551 122.048 159.873 122.577 156.853 122.577ZM200.887 114.091V111.866C200.887 110.232 201.23 108.729 201.916 107.356C202.617 105.983 203.633 104.877 204.965 104.04C206.297 103.202 207.91 102.783 209.805 102.783C211.755 102.783 213.389 103.202 214.707 104.04C216.025 104.864 217.021 105.962 217.693 107.335C218.38 108.708 218.723 110.219 218.723 111.866V114.091C218.723 115.725 218.38 117.228 217.693 118.602C217.007 119.975 215.998 121.08 214.666 121.918C213.348 122.755 211.727 123.174 209.805 123.174C207.883 123.174 206.255 122.755 204.924 121.918C203.592 121.08 202.582 119.975 201.896 118.602C201.223 117.228 200.887 115.725 200.887 114.091ZM206.262 111.866V114.091C206.262 115.176 206.523 116.171 207.045 117.077C207.567 117.984 208.487 118.437 209.805 118.437C211.137 118.437 212.05 117.991 212.544 117.098C213.052 116.192 213.306 115.189 213.306 114.091V111.866C213.306 110.768 213.066 109.766 212.585 108.859C212.105 107.939 211.178 107.479 209.805 107.479C208.514 107.479 207.601 107.939 207.066 108.859C206.53 109.766 206.262 110.768 206.262 111.866ZM179.446 89.9517V87.7273C179.446 86.0795 179.796 84.5691 180.496 83.196C181.196 81.8229 182.212 80.7244 183.544 79.9006C184.876 79.063 186.49 78.6442 188.384 78.6442C190.321 78.6442 191.948 79.063 193.266 79.9006C194.598 80.7244 195.6 81.8229 196.273 83.196C196.946 84.5691 197.282 86.0795 197.282 87.7273V89.9517C197.282 91.5994 196.939 93.1098 196.252 94.483C195.58 95.8423 194.577 96.9339 193.245 97.7578C191.913 98.5817 190.293 98.9936 188.384 98.9936C186.448 98.9936 184.814 98.5817 183.482 97.7578C182.164 96.9339 181.162 95.8355 180.475 94.4624C179.789 93.0893 179.446 91.5857 179.446 89.9517ZM184.862 87.7273V89.9517C184.862 91.0502 185.116 92.0526 185.625 92.9588C186.146 93.8513 187.066 94.2976 188.384 94.2976C189.703 94.2976 190.609 93.8513 191.103 92.9588C191.611 92.0526 191.865 91.0502 191.865 89.9517V87.7273C191.865 86.6288 191.625 85.6264 191.144 84.7202C190.664 83.8002 189.744 83.3402 188.384 83.3402C187.08 83.3402 186.167 83.8002 185.645 84.7202C185.123 85.6402 184.862 86.6425 184.862 87.7273ZM181.794 122L210.794 79.8182H215.943L186.943 122H181.794Z" fill="#17B1EA"/>
<path d="M30.2273 162.557V163.807H25.1364V162.557H30.2273ZM36.0394 169.159C35.1833 169.159 34.4541 168.926 33.8519 168.46C33.2496 167.991 32.7894 167.311 32.4712 166.42C32.153 165.527 31.9939 164.447 31.9939 163.182C31.9939 161.924 32.153 160.85 32.4712 159.96C32.7932 159.066 33.2553 158.384 33.8576 157.915C34.4636 157.441 35.1909 157.205 36.0394 157.205C36.8879 157.205 37.6132 157.441 38.2155 157.915C38.8216 158.384 39.2837 159.066 39.6019 159.96C39.9238 160.85 40.0848 161.924 40.0848 163.182C40.0848 164.447 39.9257 165.527 39.6076 166.42C39.2894 167.311 38.8291 167.991 38.2269 168.46C37.6246 168.926 36.8954 169.159 36.0394 169.159ZM36.0394 167.909C36.8879 167.909 37.547 167.5 38.0166 166.682C38.4863 165.864 38.7212 164.697 38.7212 163.182C38.7212 162.174 38.6132 161.316 38.3973 160.608C38.1852 159.9 37.8784 159.36 37.4769 158.989C37.0791 158.617 36.6 158.432 36.0394 158.432C35.1985 158.432 34.5413 158.847 34.0678 159.676C33.5943 160.502 33.3576 161.67 33.3576 163.182C33.3576 164.189 33.4636 165.045 33.6757 165.75C33.8879 166.455 34.1928 166.991 34.5905 167.358C34.992 167.725 35.475 167.909 36.0394 167.909ZM42.5177 169.091C42.2374 169.091 41.9968 168.991 41.7961 168.79C41.5953 168.589 41.4949 168.348 41.4949 168.068C41.4949 167.788 41.5953 167.547 41.7961 167.347C41.9968 167.146 42.2374 167.045 42.5177 167.045C42.798 167.045 43.0385 167.146 43.2393 167.347C43.44 167.547 43.5404 167.788 43.5404 168.068C43.5404 168.254 43.493 168.424 43.3984 168.58C43.3074 168.735 43.1843 168.86 43.029 168.955C42.8775 169.045 42.7071 169.091 42.5177 169.091ZM45.7332 169L50.9377 158.705V158.614H44.9377V157.364H52.3923V158.682L47.2105 169H45.7332ZM52.9799 166.614V165.455L58.0936 157.364H58.9345V159.159H58.3663L54.5027 165.273V165.364H61.389V166.614H52.9799ZM58.4572 169V166.261V165.722V157.364H59.7981V169H58.4572ZM67.8783 163.182C67.8783 161.75 68.0639 160.434 68.4351 159.233C68.8101 158.028 69.3442 156.92 70.0374 155.909H71.2192C70.9465 156.284 70.6908 156.746 70.4522 157.295C70.2173 157.841 70.0109 158.441 69.8328 159.097C69.6548 159.748 69.5147 160.422 69.4124 161.119C69.3139 161.816 69.2647 162.504 69.2647 163.182C69.2647 164.083 69.3518 164.998 69.526 165.926C69.7003 166.854 69.9351 167.716 70.2306 168.511C70.526 169.307 70.8556 169.955 71.2192 170.455H70.0374C69.3442 169.443 68.8101 168.337 68.4351 167.136C68.0639 165.932 67.8783 164.614 67.8783 163.182ZM76.6506 169.159C75.7946 169.159 75.0654 168.926 74.4631 168.46C73.8609 167.991 73.4006 167.311 73.0824 166.42C72.7643 165.527 72.6052 164.447 72.6052 163.182C72.6052 161.924 72.7643 160.85 73.0824 159.96C73.4044 159.066 73.8665 158.384 74.4688 157.915C75.0749 157.441 75.8021 157.205 76.6506 157.205C77.4991 157.205 78.2245 157.441 78.8268 157.915C79.4328 158.384 79.8949 159.066 80.2131 159.96C80.5351 160.85 80.6961 161.924 80.6961 163.182C80.6961 164.447 80.537 165.527 80.2188 166.42C79.9006 167.311 79.4404 167.991 78.8381 168.46C78.2359 168.926 77.5067 169.159 76.6506 169.159ZM76.6506 167.909C77.4991 167.909 78.1582 167.5 78.6279 166.682C79.0976 165.864 79.3324 164.697 79.3324 163.182C79.3324 162.174 79.2245 161.316 79.0086 160.608C78.7965 159.9 78.4896 159.36 78.0881 158.989C77.6904 158.617 77.2112 158.432 76.6506 158.432C75.8097 158.432 75.1525 158.847 74.679 159.676C74.2055 160.502 73.9688 161.67 73.9688 163.182C73.9688 164.189 74.0749 165.045 74.287 165.75C74.4991 166.455 74.804 166.991 75.2018 167.358C75.6033 167.725 76.0862 167.909 76.6506 167.909ZM83.1289 169.091C82.8486 169.091 82.6081 168.991 82.4073 168.79C82.2066 168.589 82.1062 168.348 82.1062 168.068C82.1062 167.788 82.2066 167.547 82.4073 167.347C82.6081 167.146 82.8486 167.045 83.1289 167.045C83.4092 167.045 83.6498 167.146 83.8505 167.347C84.0513 167.547 84.1516 167.788 84.1516 168.068C84.1516 168.254 84.1043 168.424 84.0096 168.58C83.9187 168.735 83.7956 168.86 83.6403 168.955C83.4888 169.045 83.3183 169.091 83.1289 169.091ZM86.3444 169L91.549 158.705V158.614H85.549V157.364H93.0035V158.682L87.8217 169H86.3444ZM93.5912 166.614V165.455L98.7048 157.364H99.5457V159.159H98.9776L95.1139 165.273V165.364H102V166.614H93.5912ZM99.0685 169V166.261V165.722V157.364H100.409V169H99.0685ZM109.741 166.818V166.205C109.741 165.78 109.828 165.392 110.003 165.04C110.181 164.684 110.438 164.4 110.775 164.188C111.116 163.972 111.529 163.864 112.014 163.864C112.507 163.864 112.919 163.972 113.253 164.188C113.586 164.4 113.838 164.684 114.008 165.04C114.179 165.392 114.264 165.78 114.264 166.205V166.818C114.264 167.242 114.177 167.633 114.003 167.989C113.832 168.341 113.578 168.625 113.241 168.841C112.908 169.053 112.499 169.159 112.014 169.159C111.522 169.159 111.107 169.053 110.77 168.841C110.433 168.625 110.177 168.341 110.003 167.989C109.828 167.633 109.741 167.242 109.741 166.818ZM110.9 166.205V166.818C110.9 167.17 110.984 167.487 111.15 167.767C111.317 168.044 111.605 168.182 112.014 168.182C112.412 168.182 112.692 168.044 112.855 167.767C113.022 167.487 113.105 167.17 113.105 166.818V166.205C113.105 165.852 113.025 165.538 112.866 165.261C112.707 164.981 112.423 164.841 112.014 164.841C111.616 164.841 111.33 164.981 111.156 165.261C110.986 165.538 110.9 165.852 110.9 166.205ZM103.946 160.159V159.545C103.946 159.121 104.033 158.733 104.207 158.381C104.385 158.025 104.643 157.741 104.98 157.528C105.321 157.312 105.734 157.205 106.219 157.205C106.711 157.205 107.124 157.312 107.457 157.528C107.791 157.741 108.043 158.025 108.213 158.381C108.383 158.733 108.469 159.121 108.469 159.545V160.159C108.469 160.583 108.382 160.973 108.207 161.33C108.037 161.682 107.783 161.966 107.446 162.182C107.113 162.394 106.703 162.5 106.219 162.5C105.726 162.5 105.311 162.394 104.974 162.182C104.637 161.966 104.382 161.682 104.207 161.33C104.033 160.973 103.946 160.583 103.946 160.159ZM105.105 159.545V160.159C105.105 160.511 105.188 160.828 105.355 161.108C105.522 161.384 105.81 161.523 106.219 161.523C106.616 161.523 106.897 161.384 107.06 161.108C107.226 160.828 107.31 160.511 107.31 160.159V159.545C107.31 159.193 107.23 158.879 107.071 158.602C106.912 158.322 106.628 158.182 106.219 158.182C105.821 158.182 105.535 158.322 105.361 158.602C105.19 158.879 105.105 159.193 105.105 159.545ZM104.378 169L112.378 157.364H113.673L105.673 169H104.378ZM119.376 163.182C119.376 164.614 119.188 165.932 118.813 167.136C118.442 168.337 117.91 169.443 117.217 170.455H116.035C116.308 170.08 116.562 169.617 116.796 169.068C117.035 168.523 117.243 167.924 117.421 167.273C117.599 166.617 117.738 165.941 117.836 165.244C117.938 164.544 117.99 163.856 117.99 163.182C117.99 162.28 117.902 161.366 117.728 160.438C117.554 159.509 117.319 158.648 117.024 157.852C116.728 157.057 116.399 156.409 116.035 155.909H117.217C117.91 156.92 118.442 158.028 118.813 159.233C119.188 160.434 119.376 161.75 119.376 163.182Z" fill="#F21010"/>
<path fill-rule="evenodd" clip-rule="evenodd" d="M277.359 152.23C277.064 152.011 276.646 152.035 276.38 152.303L272.302 156.4L272.229 156.484C272.012 156.778 272.037 157.195 272.304 157.461L272.389 157.533C272.683 157.75 273.099 157.725 273.365 157.458L276.161 154.649V166.451L276.168 166.552C276.218 166.919 276.531 167.201 276.911 167.201C277.325 167.201 277.661 166.865 277.661 166.451V154.649L280.457 157.458L280.541 157.531C280.834 157.749 281.251 157.726 281.518 157.461C281.812 157.168 281.813 156.693 281.521 156.4L277.443 152.303L277.438 152.299C277.415 152.276 277.39 152.255 277.365 152.236L277.359 152.23ZM287.583 155.445C287.533 155.079 287.219 154.796 286.84 154.796C286.425 154.796 286.09 155.132 286.09 155.546V167.348L283.293 164.539L283.209 164.466C282.916 164.248 282.499 164.271 282.233 164.537C281.939 164.829 281.938 165.304 282.23 165.597L286.308 169.694L286.313 169.698C286.336 169.721 286.36 169.742 286.386 169.762L286.392 169.767C286.686 169.986 287.104 169.962 287.371 169.694L291.449 165.597L291.521 165.513C291.738 165.219 291.713 164.802 291.446 164.537C291.153 164.244 290.678 164.245 290.386 164.539L287.59 167.347V155.546L287.583 155.445Z" fill="#F21010"/>
<path fill-rule="evenodd" clip-rule="evenodd" d="M301.085 2.33334H290.915C286.965 2.33334 284.333 5.15656 284.333 9.20871V18.7913C284.333 22.8473 286.958 25.6667 290.915 25.6667H301.085C305.042 25.6667 307.667 22.8473 307.667 18.7913V9.20871C307.667 5.15277 305.042 2.33334 301.085 2.33334ZM290.915 3.96125H301.085C304.116 3.96125 306.039 6.02686 306.039 9.20871V18.7913C306.039 21.9732 304.116 24.0388 301.085 24.0388H290.915C287.884 24.0388 285.961 21.9732 285.961 18.7913V9.20871C285.961 6.03109 287.891 3.96125 290.915 3.96125ZM296.848 8.37543C296.794 7.97814 296.453 7.67193 296.041 7.67193C295.592 7.67193 295.227 8.03635 295.227 8.48588V19.4935L295.235 19.6039C295.289 20.0012 295.629 20.3074 296.041 20.3074C296.491 20.3074 296.855 19.943 296.855 19.4935V8.48588L296.848 8.37543ZM291.783 11.9379C291.729 11.5406 291.389 11.2344 290.977 11.2344C290.527 11.2344 290.163 11.5988 290.163 12.0484V19.4935L290.17 19.6039C290.224 20.0012 290.565 20.3074 290.977 20.3074C291.426 20.3074 291.791 19.943 291.791 19.4935V12.0484L291.783 11.9379ZM301.023 15.1687C301.435 15.1687 301.776 15.4749 301.83 15.8722L301.837 15.9826V19.4935C301.837 19.943 301.473 20.3074 301.023 20.3074C300.611 20.3074 300.271 20.0012 300.217 19.6039L300.209 19.4935V15.9826C300.209 15.5331 300.574 15.1687 301.023 15.1687Z" fill="#ADB3CC"/>
</svg>
