<svg width="318" height="197" viewBox="0 0 318 197" fill="none" xmlns="http://www.w3.org/2000/svg">
<rect width="318" height="197" rx="12" fill="#1A1E30"/>
<path d="M26.358 28.4545L30.6761 40.6989H30.8466L35.1648 28.4545H37.0114L31.6705 43H29.8523L24.5114 28.4545H26.358ZM38.6497 43V32.0909H40.3259V43H38.6497ZM39.502 30.2727C39.1753 30.2727 38.8936 30.1615 38.6568 29.9389C38.4248 29.7164 38.3088 29.4489 38.3088 29.1364C38.3088 28.8239 38.4248 28.5563 38.6568 28.3338C38.8936 28.1113 39.1753 28 39.502 28C39.8287 28 40.108 28.1113 40.3401 28.3338C40.5768 28.5563 40.6952 28.8239 40.6952 29.1364C40.6952 29.4489 40.5768 29.7164 40.3401 29.9389C40.108 30.1615 39.8287 30.2727 39.502 30.2727ZM50.7231 34.5341L49.2174 34.9602C49.1227 34.7093 48.983 34.4654 48.7984 34.2287C48.6184 33.9872 48.3722 33.7884 48.0597 33.6321C47.7472 33.4759 47.3471 33.3977 46.8594 33.3977C46.1918 33.3977 45.6355 33.5516 45.1904 33.8594C44.7501 34.1624 44.5299 34.5483 44.5299 35.017C44.5299 35.4337 44.6814 35.7628 44.9844 36.0043C45.2875 36.2457 45.761 36.447 46.4049 36.608L48.0242 37.0057C48.9996 37.2424 49.7264 37.6046 50.2046 38.0923C50.6828 38.5753 50.9219 39.1979 50.9219 39.9602C50.9219 40.5852 50.742 41.1439 50.3822 41.6364C50.0271 42.1288 49.5299 42.517 48.8907 42.8011C48.2515 43.0852 47.5081 43.2273 46.6606 43.2273C45.5479 43.2273 44.627 42.9858 43.8978 42.5028C43.1686 42.0199 42.707 41.3144 42.5129 40.3864L44.1038 39.9886C44.2553 40.5758 44.5417 41.0161 44.9631 41.3097C45.3893 41.6032 45.9456 41.75 46.6322 41.75C47.4134 41.75 48.0337 41.5843 48.493 41.2528C48.957 40.9167 49.189 40.5142 49.189 40.0455C49.189 39.6667 49.0564 39.3494 48.7913 39.0938C48.5261 38.8333 48.1189 38.6392 47.5697 38.5114L45.7515 38.0852C44.7524 37.8485 44.0185 37.4815 43.5498 36.9844C43.0858 36.4825 42.8538 35.8551 42.8538 35.1023C42.8538 34.4867 43.0266 33.9422 43.3722 33.4688C43.7226 32.9953 44.1985 32.6236 44.7998 32.3537C45.4058 32.0838 46.0924 31.9489 46.8594 31.9489C47.939 31.9489 48.7865 32.1856 49.4021 32.6591C50.0223 33.1326 50.4627 33.7576 50.7231 34.5341ZM53.045 43V32.0909H54.7212V43H53.045ZM53.8973 30.2727C53.5706 30.2727 53.2889 30.1615 53.0521 29.9389C52.8201 29.7164 52.7041 29.4489 52.7041 29.1364C52.7041 28.8239 52.8201 28.5563 53.0521 28.3338C53.2889 28.1113 53.5706 28 53.8973 28C54.224 28 54.5034 28.1113 54.7354 28.3338C54.9721 28.5563 55.0905 28.8239 55.0905 29.1364C55.0905 29.4489 54.9721 29.7164 54.7354 29.9389C54.5034 30.1615 54.224 30.2727 53.8973 30.2727ZM62.1354 32.0909V33.5114H56.482V32.0909H62.1354ZM58.1298 29.4773H59.8059V39.875C59.8059 40.3485 59.8745 40.7036 60.0119 40.9403C60.1539 41.1723 60.3338 41.3286 60.5516 41.4091C60.7742 41.4848 61.0085 41.5227 61.2548 41.5227C61.4394 41.5227 61.5909 41.5133 61.7093 41.4943C61.8277 41.4706 61.9224 41.4517 61.9934 41.4375L62.3343 42.9432C62.2207 42.9858 62.062 43.0284 61.8585 43.071C61.6549 43.1184 61.3968 43.142 61.0843 43.142C60.6108 43.142 60.1468 43.0402 59.6923 42.8366C59.2424 42.633 58.8684 42.3229 58.5701 41.9062C58.2765 41.4896 58.1298 40.964 58.1298 40.3295V29.4773ZM68.5714 43.2273C67.5865 43.2273 66.7224 42.9929 65.979 42.5241C65.2404 42.0554 64.6628 41.3996 64.2461 40.5568C63.8342 39.714 63.6282 38.7292 63.6282 37.6023C63.6282 36.4659 63.8342 35.474 64.2461 34.6264C64.6628 33.7789 65.2404 33.1207 65.979 32.652C66.7224 32.1832 67.5865 31.9489 68.5714 31.9489C69.5562 31.9489 70.418 32.1832 71.1566 32.652C71.9 33.1207 72.4776 33.7789 72.8896 34.6264C73.3062 35.474 73.5146 36.4659 73.5146 37.6023C73.5146 38.7292 73.3062 39.714 72.8896 40.5568C72.4776 41.3996 71.9 42.0554 71.1566 42.5241C70.418 42.9929 69.5562 43.2273 68.5714 43.2273ZM68.5714 41.7216C69.3195 41.7216 69.935 41.5298 70.418 41.1463C70.9009 40.7628 71.2584 40.2585 71.4904 39.6335C71.7224 39.0085 71.8384 38.3314 71.8384 37.6023C71.8384 36.8731 71.7224 36.1937 71.4904 35.5639C71.2584 34.9342 70.9009 34.4252 70.418 34.0369C69.935 33.6487 69.3195 33.4545 68.5714 33.4545C67.8233 33.4545 67.2077 33.6487 66.7248 34.0369C66.2418 34.4252 65.8844 34.9342 65.6523 35.5639C65.4203 36.1937 65.3043 36.8731 65.3043 37.6023C65.3043 38.3314 65.4203 39.0085 65.6523 39.6335C65.8844 40.2585 66.2418 40.7628 66.7248 41.1463C67.2077 41.5298 67.8233 41.7216 68.5714 41.7216ZM75.6732 43V32.0909H77.2925V33.7386H77.4061C77.605 33.1989 77.9648 32.7609 78.4857 32.4247C79.0065 32.0885 79.5936 31.9205 80.247 31.9205C80.3701 31.9205 80.524 31.9228 80.7087 31.9276C80.8933 31.9323 81.033 31.9394 81.1277 31.9489V33.6534C81.0709 33.6392 80.9407 33.6179 80.7371 33.5895C80.5382 33.5563 80.3275 33.5398 80.105 33.5398C79.5747 33.5398 79.1012 33.651 78.6845 33.8736C78.2726 34.0914 77.9459 34.3944 77.7044 34.7827C77.4677 35.1662 77.3493 35.6042 77.3493 36.0966V43H75.6732ZM90.4418 34.5341L88.9362 34.9602C88.8415 34.7093 88.7018 34.4654 88.5171 34.2287C88.3372 33.9872 88.091 33.7884 87.7785 33.6321C87.466 33.4759 87.0659 33.3977 86.5782 33.3977C85.9106 33.3977 85.3542 33.5516 84.9092 33.8594C84.4688 34.1624 84.2487 34.5483 84.2487 35.017C84.2487 35.4337 84.4002 35.7628 84.7032 36.0043C85.0062 36.2457 85.4797 36.447 86.1237 36.608L87.743 37.0057C88.7183 37.2424 89.4451 37.6046 89.9234 38.0923C90.4016 38.5753 90.6407 39.1979 90.6407 39.9602C90.6407 40.5852 90.4608 41.1439 90.1009 41.6364C89.7458 42.1288 89.2487 42.517 88.6094 42.8011C87.9702 43.0852 87.2269 43.2273 86.3793 43.2273C85.2666 43.2273 84.3457 42.9858 83.6165 42.5028C82.8874 42.0199 82.4257 41.3144 82.2316 40.3864L83.8225 39.9886C83.974 40.5758 84.2605 41.0161 84.6819 41.3097C85.108 41.6032 85.6644 41.75 86.3509 41.75C87.1322 41.75 87.7524 41.5843 88.2117 41.2528C88.6757 40.9167 88.9077 40.5142 88.9077 40.0455C88.9077 39.6667 88.7752 39.3494 88.51 39.0938C88.2449 38.8333 87.8377 38.6392 87.2884 38.5114L85.4702 38.0852C84.4712 37.8485 83.7373 37.4815 83.2685 36.9844C82.8045 36.4825 82.5725 35.8551 82.5725 35.1023C82.5725 34.4867 82.7453 33.9422 83.091 33.4688C83.4414 32.9953 83.9172 32.6236 84.5185 32.3537C85.1246 32.0838 85.8112 31.9489 86.5782 31.9489C87.6577 31.9489 88.5053 32.1856 89.1208 32.6591C89.7411 33.1326 90.1814 33.7576 90.4418 34.5341Z" fill="#42BBFF"/>
<path d="M42.3928 79.2415C44.4112 79.2552 46.3748 79.6122 48.2834 80.3125C50.2057 80.9991 51.9358 82.125 53.4737 83.6903C55.0116 85.2419 56.2337 87.3222 57.1399 89.9311C58.0462 92.54 58.4993 95.7668 58.4993 99.6115C58.513 103.237 58.1286 106.477 57.3459 109.333C56.5769 112.175 55.4716 114.578 54.0298 116.542C52.5881 118.505 50.8511 120.002 48.8189 121.032C46.7867 122.062 44.5005 122.577 41.9602 122.577C39.2964 122.577 36.9347 122.055 34.875 121.011C32.8291 119.968 31.1745 118.54 29.9112 116.727C28.648 114.915 27.8722 112.841 27.5838 110.507H35.1016C35.486 112.182 36.2687 113.514 37.4496 114.503C38.6442 115.478 40.1477 115.965 41.9602 115.965C44.8849 115.965 47.1368 114.695 48.7159 112.155C50.295 109.615 51.0845 106.086 51.0845 101.568H50.7962C50.1233 102.777 49.2514 103.82 48.1804 104.699C47.1094 105.564 45.8942 106.23 44.5348 106.697C43.1892 107.164 41.7611 107.397 40.2507 107.397C37.7791 107.397 35.5547 106.807 33.5774 105.626C31.6139 104.445 30.0554 102.825 28.902 100.765C27.7623 98.7053 27.1856 96.3504 27.1719 93.7003C27.1719 90.9541 27.8035 88.4893 29.0668 86.3061C30.3438 84.1091 32.1219 82.379 34.4013 81.1158C36.6806 79.8388 39.3445 79.214 42.3928 79.2415ZM42.4134 85.4205C40.9304 85.4205 39.5916 85.7843 38.397 86.5121C37.2161 87.2261 36.2824 88.201 35.5959 89.4368C34.9231 90.6589 34.5866 92.0251 34.5866 93.5355C34.6004 95.0322 34.9368 96.3916 35.5959 97.6136C36.2687 98.8357 37.1818 99.8037 38.3352 100.518C39.5024 101.232 40.8343 101.589 42.331 101.589C43.4432 101.589 44.4799 101.376 45.4411 100.95C46.4022 100.525 47.2398 99.9342 47.9538 99.179C48.6816 98.41 49.2446 97.5381 49.6428 96.5632C50.0547 95.5883 50.2538 94.5585 50.2401 93.4737C50.2401 92.032 49.8968 90.7 49.2102 89.478C48.5374 88.2559 47.6106 87.2741 46.4297 86.5327C45.2625 85.7912 43.9238 85.4205 42.4134 85.4205ZM64.198 122V116.48L78.8421 102.124C80.2427 100.71 81.4098 99.4536 82.3436 98.3551C83.2773 97.2566 83.9775 96.1925 84.4444 95.1626C84.9113 94.1328 85.1447 93.0343 85.1447 91.8672C85.1447 90.5353 84.8426 89.3956 84.2384 88.4482C83.6343 87.487 82.8035 86.7455 81.7463 86.2237C80.689 85.7019 79.4875 85.441 78.1418 85.441C76.755 85.441 75.5398 85.7294 74.4963 86.3061C73.4527 86.8691 72.6426 87.6723 72.0659 88.7159C71.5029 89.7595 71.2214 91.0021 71.2214 92.4439H63.9508C63.9508 89.7663 64.5618 87.4389 65.7839 85.4616C67.006 83.4844 68.688 81.9534 70.8301 80.8686C72.9858 79.7839 75.4574 79.2415 78.2448 79.2415C81.0734 79.2415 83.5588 79.7701 85.7008 80.8274C87.8428 81.8847 89.5043 83.3333 90.6852 85.1733C91.8798 87.0133 92.4771 89.1141 92.4771 91.4759C92.4771 93.0549 92.175 94.6065 91.5708 96.1307C90.9667 97.6548 89.9025 99.3437 88.3784 101.197C86.8679 103.051 84.7465 105.296 82.014 107.933L74.7434 115.327V115.615H93.1156V122H64.198ZM107.897 116.233L107.63 118.499C107.437 120.229 107.094 121.986 106.6 123.771C106.119 125.57 105.611 127.225 105.076 128.735C104.54 130.246 104.108 131.433 103.778 132.298H98.7524C98.9447 131.461 99.2056 130.321 99.5351 128.879C99.8784 127.438 100.208 125.817 100.524 124.018C100.84 122.22 101.052 120.393 101.162 118.54L101.306 116.233H107.897ZM128.812 122.577C126.793 122.563 124.823 122.213 122.901 121.526C120.978 120.826 119.248 119.693 117.71 118.128C116.172 116.549 114.95 114.455 114.044 111.846C113.138 109.223 112.691 105.976 112.705 102.104C112.705 98.4924 113.09 95.2725 113.859 92.4439C114.628 89.6153 115.733 87.2261 117.175 85.2763C118.616 83.3127 120.353 81.816 122.386 80.7862C124.432 79.7564 126.718 79.2415 129.244 79.2415C131.894 79.2415 134.242 79.7633 136.288 80.8068C138.348 81.8504 140.009 83.2784 141.273 85.0909C142.536 86.8897 143.319 88.9219 143.621 91.1875H136.103C135.718 89.5672 134.929 88.2765 133.734 87.3153C132.553 86.3404 131.057 85.853 129.244 85.853C126.32 85.853 124.068 87.1231 122.489 89.6634C120.923 92.2036 120.134 95.6913 120.12 100.126H120.408C121.081 98.9181 121.953 97.8814 123.024 97.0163C124.095 96.1513 125.303 95.4853 126.649 95.0185C128.008 94.5379 129.443 94.2976 130.954 94.2976C133.425 94.2976 135.643 94.888 137.606 96.0689C139.584 97.2498 141.149 98.8769 142.302 100.95C143.456 103.01 144.026 105.372 144.012 108.036C144.026 110.809 143.394 113.301 142.117 115.512C140.84 117.709 139.062 119.439 136.783 120.702C134.503 121.966 131.846 122.59 128.812 122.577ZM128.771 116.398C130.267 116.398 131.606 116.034 132.787 115.306C133.968 114.578 134.901 113.597 135.588 112.361C136.275 111.125 136.611 109.738 136.597 108.2C136.611 106.69 136.281 105.324 135.609 104.102C134.95 102.879 134.036 101.911 132.869 101.197C131.702 100.483 130.37 100.126 128.874 100.126C127.761 100.126 126.725 100.339 125.763 100.765C124.802 101.191 123.965 101.781 123.251 102.536C122.537 103.278 121.974 104.143 121.562 105.131C121.164 106.106 120.958 107.15 120.944 108.262C120.958 109.731 121.301 111.084 121.974 112.32C122.646 113.555 123.573 114.544 124.754 115.286C125.935 116.027 127.274 116.398 128.771 116.398ZM164.808 122.577C161.746 122.577 159.027 122.062 156.652 121.032C154.29 120.002 152.436 118.595 151.091 116.81C149.759 115.011 149.1 112.972 149.113 110.692C149.1 108.921 149.484 107.294 150.267 105.811C151.049 104.328 152.107 103.092 153.439 102.104C154.784 101.101 156.281 100.463 157.929 100.188V99.8999C155.759 99.4193 154.002 98.3139 152.656 96.5838C151.324 94.84 150.665 92.8284 150.679 90.549C150.665 88.3795 151.269 86.4434 152.491 84.7408C153.713 83.0381 155.388 81.6993 157.517 80.7244C159.645 79.7358 162.075 79.2415 164.808 79.2415C167.513 79.2415 169.923 79.7358 172.037 80.7244C174.166 81.6993 175.841 83.0381 177.063 84.7408C178.299 86.4434 178.917 88.3795 178.917 90.549C178.917 92.8284 178.237 94.84 176.878 96.5838C175.532 98.3139 173.795 99.4193 171.667 99.8999V100.188C173.314 100.463 174.797 101.101 176.116 102.104C177.447 103.092 178.505 104.328 179.287 105.811C180.084 107.294 180.482 108.921 180.482 110.692C180.482 112.972 179.809 115.011 178.464 116.81C177.118 118.595 175.264 120.002 172.902 121.032C170.554 122.062 167.856 122.577 164.808 122.577ZM164.808 116.686C166.387 116.686 167.76 116.418 168.927 115.883C170.094 115.334 171.001 114.565 171.646 113.576C172.291 112.587 172.621 111.448 172.635 110.157C172.621 108.811 172.271 107.624 171.584 106.594C170.911 105.55 169.985 104.733 168.804 104.143C167.637 103.552 166.305 103.257 164.808 103.257C163.298 103.257 161.952 103.552 160.771 104.143C159.59 104.733 158.656 105.55 157.97 106.594C157.297 107.624 156.968 108.811 156.981 110.157C156.968 111.448 157.283 112.587 157.929 113.576C158.574 114.551 159.48 115.313 160.647 115.862C161.828 116.411 163.215 116.686 164.808 116.686ZM164.808 97.4695C166.099 97.4695 167.238 97.2086 168.227 96.6868C169.229 96.165 170.019 95.4373 170.596 94.5036C171.172 93.5698 171.468 92.492 171.481 91.2699C171.468 90.0616 171.179 89.0043 170.616 88.098C170.053 87.178 169.271 86.4709 168.268 85.9766C167.266 85.4685 166.112 85.2145 164.808 85.2145C163.476 85.2145 162.302 85.4685 161.286 85.9766C160.284 86.4709 159.501 87.178 158.938 88.098C158.389 89.0043 158.121 90.0616 158.135 91.2699C158.121 92.492 158.396 93.5698 158.959 94.5036C159.535 95.4235 160.325 96.1513 161.327 96.6868C162.343 97.2086 163.504 97.4695 164.808 97.4695ZM201.685 122.803C198.293 122.803 195.382 121.945 192.952 120.229C190.535 118.499 188.675 116.006 187.37 112.752C186.079 109.484 185.434 105.55 185.434 100.95C185.448 96.3504 186.1 92.437 187.391 89.2102C188.695 85.9697 190.556 83.4981 192.972 81.7955C195.403 80.0928 198.307 79.2415 201.685 79.2415C205.063 79.2415 207.967 80.0928 210.397 81.7955C212.827 83.4981 214.688 85.9697 215.979 89.2102C217.283 92.4508 217.935 96.3641 217.935 100.95C217.935 105.564 217.283 109.505 215.979 112.773C214.688 116.027 212.827 118.512 210.397 120.229C207.98 121.945 205.076 122.803 201.685 122.803ZM201.685 116.357C204.321 116.357 206.401 115.059 207.925 112.464C209.463 109.855 210.232 106.017 210.232 100.95C210.232 97.5999 209.882 94.785 209.182 92.5057C208.482 90.2263 207.493 88.5099 206.216 87.3565C204.939 86.1894 203.429 85.6058 201.685 85.6058C199.062 85.6058 196.989 86.9103 195.465 89.5192C193.94 92.1143 193.171 95.9247 193.158 100.95C193.144 104.314 193.48 107.143 194.167 109.436C194.867 111.729 195.856 113.459 197.133 114.626C198.41 115.78 199.927 116.357 201.685 116.357Z" fill="#17B1EA"/>
<path d="M28.6364 166.955V159.455H29.9091V166.955H28.6364ZM25.5227 163.841V162.568H33.0227V163.841H25.5227ZM39.1757 169.159C38.4257 169.159 37.7572 169.03 37.1701 168.773C36.5867 168.515 36.1227 168.157 35.778 167.699C35.4371 167.237 35.2515 166.701 35.2212 166.091H36.653C36.6833 166.466 36.8121 166.79 37.0394 167.062C37.2666 167.331 37.564 167.54 37.9314 167.688C38.2988 167.835 38.706 167.909 39.153 167.909C39.653 167.909 40.0962 167.822 40.4826 167.648C40.8689 167.473 41.172 167.231 41.3916 166.92C41.6113 166.61 41.7212 166.25 41.7212 165.841C41.7212 165.413 41.6151 165.036 41.403 164.71C41.1909 164.381 40.8803 164.123 40.4712 163.938C40.0621 163.752 39.5621 163.659 38.9712 163.659H38.0394V162.409H38.9712C39.4333 162.409 39.8386 162.326 40.1871 162.159C40.5394 161.992 40.814 161.758 41.011 161.455C41.2117 161.152 41.3121 160.795 41.3121 160.386C41.3121 159.992 41.225 159.65 41.0507 159.358C40.8765 159.066 40.6303 158.839 40.3121 158.676C39.9977 158.513 39.6265 158.432 39.1985 158.432C38.797 158.432 38.4182 158.506 38.0621 158.653C37.7098 158.797 37.422 159.008 37.1985 159.284C36.975 159.557 36.8538 159.886 36.8348 160.273H35.4712C35.4939 159.663 35.6776 159.129 36.0223 158.67C36.367 158.208 36.8178 157.848 37.3746 157.591C37.9352 157.333 38.5507 157.205 39.2212 157.205C39.9409 157.205 40.5583 157.35 41.0735 157.642C41.5886 157.93 41.9845 158.311 42.261 158.784C42.5375 159.258 42.6757 159.769 42.6757 160.318C42.6757 160.973 42.5034 161.532 42.1587 161.994C41.8178 162.456 41.3538 162.777 40.7666 162.955V163.045C41.5015 163.167 42.0754 163.479 42.4882 163.983C42.9011 164.483 43.1076 165.102 43.1076 165.841C43.1076 166.473 42.9352 167.042 42.5905 167.545C42.2496 168.045 41.7837 168.439 41.1928 168.727C40.6019 169.015 39.9295 169.159 39.1757 169.159ZM46.7748 167.409L46.6839 168.023C46.6195 168.455 46.521 168.917 46.3884 169.409C46.2596 169.902 46.1252 170.366 45.985 170.801C45.8448 171.237 45.7293 171.583 45.6384 171.841H44.6157C44.6649 171.598 44.7293 171.278 44.8089 170.881C44.8884 170.483 44.968 170.038 45.0475 169.545C45.1308 169.057 45.199 168.557 45.252 168.045L45.3202 167.409H46.7748ZM52.2843 169.159C51.504 169.159 50.8146 169.021 50.2161 168.744C49.6214 168.464 49.1574 168.08 48.8241 167.591C48.4908 167.098 48.326 166.538 48.3298 165.909C48.326 165.417 48.4226 164.962 48.6195 164.545C48.8165 164.125 49.0855 163.775 49.4264 163.494C49.7711 163.21 50.1555 163.03 50.5798 162.955V162.886C50.023 162.742 49.5798 162.43 49.2502 161.949C48.9207 161.464 48.7578 160.913 48.7616 160.295C48.7578 159.705 48.9074 159.176 49.2105 158.71C49.5135 158.244 49.9302 157.877 50.4605 157.608C50.9945 157.339 51.6025 157.205 52.2843 157.205C52.9586 157.205 53.5608 157.339 54.0911 157.608C54.6214 157.877 55.0381 158.244 55.3411 158.71C55.648 159.176 55.8033 159.705 55.807 160.295C55.8033 160.913 55.6347 161.464 55.3014 161.949C54.9718 162.43 54.5343 162.742 53.9889 162.886V162.955C54.4093 163.03 54.7881 163.21 55.1252 163.494C55.4623 163.775 55.7313 164.125 55.932 164.545C56.1328 164.962 56.2351 165.417 56.2389 165.909C56.2351 166.538 56.0646 167.098 55.7275 167.591C55.3942 168.08 54.9302 168.464 54.3355 168.744C53.7445 169.021 53.0608 169.159 52.2843 169.159ZM52.2843 167.909C52.8108 167.909 53.2654 167.824 53.648 167.653C54.0305 167.483 54.326 167.242 54.5343 166.932C54.7427 166.621 54.8487 166.258 54.8525 165.841C54.8487 165.402 54.7351 165.013 54.5116 164.676C54.2881 164.339 53.9832 164.074 53.5968 163.881C53.2142 163.687 52.7767 163.591 52.2843 163.591C51.7881 163.591 51.3449 163.687 50.9548 163.881C50.5684 164.074 50.2635 164.339 50.04 164.676C49.8203 165.013 49.7123 165.402 49.7161 165.841C49.7123 166.258 49.8127 166.621 50.0173 166.932C50.2256 167.242 50.523 167.483 50.9093 167.653C51.2957 167.824 51.754 167.909 52.2843 167.909ZM52.2843 162.386C52.701 162.386 53.0703 162.303 53.3923 162.136C53.718 161.97 53.9737 161.737 54.1593 161.438C54.3449 161.138 54.4396 160.788 54.4434 160.386C54.4396 159.992 54.3468 159.65 54.165 159.358C53.9832 159.062 53.7313 158.835 53.4093 158.676C53.0873 158.513 52.7123 158.432 52.2843 158.432C51.8487 158.432 51.468 158.513 51.1423 158.676C50.8165 158.835 50.5646 159.062 50.3866 159.358C50.2086 159.65 50.1214 159.992 50.1252 160.386C50.1214 160.788 50.2105 161.138 50.3923 161.438C50.5779 161.737 50.8336 161.97 51.1593 162.136C51.4851 162.303 51.8601 162.386 52.2843 162.386ZM57.8237 166.614V165.455L62.9373 157.364H63.7782V159.159H63.2101L59.3464 165.273V165.364H66.2328V166.614H57.8237ZM63.301 169V166.261V165.722V157.364H64.6419V169H63.301ZM71.8375 169.159C70.9814 169.159 70.2523 168.926 69.65 168.46C69.0477 167.991 68.5875 167.311 68.2693 166.42C67.9511 165.527 67.792 164.447 67.792 163.182C67.792 161.924 67.9511 160.85 68.2693 159.96C68.5913 159.066 69.0534 158.384 69.6557 157.915C70.2617 157.441 70.989 157.205 71.8375 157.205C72.686 157.205 73.4114 157.441 74.0136 157.915C74.6197 158.384 75.0818 159.066 75.4 159.96C75.722 160.85 75.883 161.924 75.883 163.182C75.883 164.447 75.7239 165.527 75.4057 166.42C75.0875 167.311 74.6273 167.991 74.025 168.46C73.4227 168.926 72.6936 169.159 71.8375 169.159ZM71.8375 167.909C72.686 167.909 73.3451 167.5 73.8148 166.682C74.2845 165.864 74.5193 164.697 74.5193 163.182C74.5193 162.174 74.4114 161.316 74.1955 160.608C73.9833 159.9 73.6765 159.36 73.275 158.989C72.8773 158.617 72.3981 158.432 71.8375 158.432C70.9966 158.432 70.3394 158.847 69.8659 159.676C69.3924 160.502 69.1557 161.67 69.1557 163.182C69.1557 164.189 69.2617 165.045 69.4739 165.75C69.686 166.455 69.9909 166.991 70.3886 167.358C70.7902 167.725 71.2731 167.909 71.8375 167.909ZM82.402 163.182C82.402 161.75 82.5876 160.434 82.9589 159.233C83.3339 158.028 83.868 156.92 84.5611 155.909H85.743C85.4702 156.284 85.2145 156.746 84.9759 157.295C84.7411 157.841 84.5346 158.441 84.3566 159.097C84.1786 159.748 84.0384 160.422 83.9361 161.119C83.8376 161.816 83.7884 162.504 83.7884 163.182C83.7884 164.083 83.8755 164.998 84.0498 165.926C84.224 166.854 84.4589 167.716 84.7543 168.511C85.0498 169.307 85.3793 169.955 85.743 170.455H84.5611C83.868 169.443 83.3339 168.337 82.9589 167.136C82.5876 165.932 82.402 164.614 82.402 163.182ZM87.3789 169V167.977L91.2198 163.773C91.6706 163.28 92.0418 162.852 92.3335 162.489C92.6251 162.121 92.841 161.777 92.9812 161.455C93.1251 161.129 93.1971 160.788 93.1971 160.432C93.1971 160.023 93.0986 159.669 92.9016 159.369C92.7085 159.07 92.4433 158.839 92.1062 158.676C91.7691 158.513 91.3903 158.432 90.9698 158.432C90.5229 158.432 90.1327 158.525 89.7994 158.71C89.4698 158.892 89.2141 159.148 89.0323 159.477C88.8543 159.807 88.7653 160.193 88.7653 160.636H87.4244C87.4244 159.955 87.5816 159.356 87.896 158.841C88.2104 158.326 88.6384 157.924 89.1801 157.636C89.7255 157.348 90.3373 157.205 91.0153 157.205C91.6971 157.205 92.3013 157.348 92.8278 157.636C93.3543 157.924 93.7672 158.312 94.0664 158.801C94.3657 159.29 94.5153 159.833 94.5153 160.432C94.5153 160.86 94.4376 161.278 94.2823 161.688C94.1308 162.093 93.8657 162.545 93.4869 163.045C93.1119 163.542 92.591 164.148 91.9244 164.864L89.3107 167.659V167.75H94.7198V169H87.3789ZM100.61 169.159C100.133 169.152 99.6555 169.061 99.1782 168.886C98.701 168.712 98.2654 168.419 97.8714 168.006C97.4775 167.589 97.1612 167.027 96.9226 166.318C96.6839 165.606 96.5646 164.712 96.5646 163.636C96.5646 162.606 96.6612 161.693 96.8544 160.898C97.0476 160.098 97.3279 159.426 97.6953 158.881C98.0627 158.331 98.5059 157.915 99.0248 157.631C99.5476 157.347 100.137 157.205 100.792 157.205C101.443 157.205 102.023 157.335 102.531 157.597C103.042 157.854 103.459 158.214 103.781 158.676C104.102 159.138 104.311 159.67 104.406 160.273H103.019C102.89 159.75 102.64 159.316 102.269 158.972C101.898 158.627 101.406 158.455 100.792 158.455C99.8904 158.455 99.1801 158.847 98.6612 159.631C98.146 160.415 97.8866 161.515 97.8828 162.932H97.9737C98.1858 162.61 98.4377 162.335 98.7294 162.108C99.0248 161.877 99.3506 161.699 99.7067 161.574C100.063 161.449 100.44 161.386 100.837 161.386C101.504 161.386 102.114 161.553 102.667 161.886C103.22 162.216 103.663 162.672 103.996 163.256C104.33 163.835 104.496 164.5 104.496 165.25C104.496 165.97 104.335 166.629 104.013 167.227C103.691 167.822 103.239 168.295 102.656 168.648C102.076 168.996 101.394 169.167 100.61 169.159ZM100.61 167.909C101.087 167.909 101.515 167.79 101.894 167.551C102.277 167.312 102.578 166.992 102.798 166.591C103.021 166.189 103.133 165.742 103.133 165.25C103.133 164.769 103.025 164.331 102.809 163.938C102.597 163.54 102.303 163.223 101.928 162.989C101.557 162.754 101.133 162.636 100.656 162.636C100.296 162.636 99.9604 162.708 99.6498 162.852C99.3392 162.992 99.0665 163.186 98.8317 163.432C98.6006 163.678 98.4188 163.96 98.2862 164.278C98.1536 164.593 98.0873 164.924 98.0873 165.273C98.0873 165.735 98.1953 166.167 98.4112 166.568C98.6309 166.97 98.9301 167.294 99.3089 167.54C99.6915 167.786 100.125 167.909 100.61 167.909ZM107.887 167.409L107.796 168.023C107.731 168.455 107.633 168.917 107.5 169.409C107.371 169.902 107.237 170.366 107.097 170.801C106.957 171.237 106.841 171.583 106.75 171.841H105.728C105.777 171.598 105.841 171.278 105.921 170.881C106 170.483 106.08 170.038 106.159 169.545C106.243 169.057 106.311 168.557 106.364 168.045L106.432 167.409H107.887ZM113.396 169.159C112.616 169.159 111.926 169.021 111.328 168.744C110.733 168.464 110.269 168.08 109.936 167.591C109.603 167.098 109.438 166.538 109.442 165.909C109.438 165.417 109.534 164.962 109.731 164.545C109.928 164.125 110.197 163.775 110.538 163.494C110.883 163.21 111.267 163.03 111.692 162.955V162.886C111.135 162.742 110.692 162.43 110.362 161.949C110.033 161.464 109.87 160.913 109.873 160.295C109.87 159.705 110.019 159.176 110.322 158.71C110.625 158.244 111.042 157.877 111.572 157.608C112.106 157.339 112.714 157.205 113.396 157.205C114.07 157.205 114.673 157.339 115.203 157.608C115.733 157.877 116.15 158.244 116.453 158.71C116.76 159.176 116.915 159.705 116.919 160.295C116.915 160.913 116.747 161.464 116.413 161.949C116.084 162.43 115.646 162.742 115.101 162.886V162.955C115.521 163.03 115.9 163.21 116.237 163.494C116.574 163.775 116.843 164.125 117.044 164.545C117.245 164.962 117.347 165.417 117.351 165.909C117.347 166.538 117.176 167.098 116.839 167.591C116.506 168.08 116.042 168.464 115.447 168.744C114.856 169.021 114.173 169.159 113.396 169.159ZM113.396 167.909C113.923 167.909 114.377 167.824 114.76 167.653C115.142 167.483 115.438 167.242 115.646 166.932C115.855 166.621 115.961 166.258 115.964 165.841C115.961 165.402 115.847 165.013 115.623 164.676C115.4 164.339 115.095 164.074 114.709 163.881C114.326 163.687 113.889 163.591 113.396 163.591C112.9 163.591 112.457 163.687 112.067 163.881C111.68 164.074 111.375 164.339 111.152 164.676C110.932 165.013 110.824 165.402 110.828 165.841C110.824 166.258 110.925 166.621 111.129 166.932C111.337 167.242 111.635 167.483 112.021 167.653C112.408 167.824 112.866 167.909 113.396 167.909ZM113.396 162.386C113.813 162.386 114.182 162.303 114.504 162.136C114.83 161.97 115.086 161.737 115.271 161.438C115.457 161.138 115.551 160.788 115.555 160.386C115.551 159.992 115.459 159.65 115.277 159.358C115.095 159.062 114.843 158.835 114.521 158.676C114.199 158.513 113.824 158.432 113.396 158.432C112.961 158.432 112.58 158.513 112.254 158.676C111.928 158.835 111.676 159.062 111.498 159.358C111.32 159.65 111.233 159.992 111.237 160.386C111.233 160.788 111.322 161.138 111.504 161.438C111.69 161.737 111.945 161.97 112.271 162.136C112.597 162.303 112.972 162.386 113.396 162.386ZM123.004 169.159C122.148 169.159 121.419 168.926 120.816 168.46C120.214 167.991 119.754 167.311 119.436 166.42C119.117 165.527 118.958 164.447 118.958 163.182C118.958 161.924 119.117 160.85 119.436 159.96C119.758 159.066 120.22 158.384 120.822 157.915C121.428 157.441 122.155 157.205 123.004 157.205C123.852 157.205 124.578 157.441 125.18 157.915C125.786 158.384 126.248 159.066 126.566 159.96C126.888 160.85 127.049 161.924 127.049 163.182C127.049 164.447 126.89 165.527 126.572 166.42C126.254 167.311 125.794 167.991 125.191 168.46C124.589 168.926 123.86 169.159 123.004 169.159ZM123.004 167.909C123.852 167.909 124.511 167.5 124.981 166.682C125.451 165.864 125.686 164.697 125.686 163.182C125.686 162.174 125.578 161.316 125.362 160.608C125.15 159.9 124.843 159.36 124.441 158.989C124.044 158.617 123.564 158.432 123.004 158.432C122.163 158.432 121.506 158.847 121.032 159.676C120.559 160.502 120.322 161.67 120.322 163.182C120.322 164.189 120.428 165.045 120.64 165.75C120.852 166.455 121.157 166.991 121.555 167.358C121.956 167.725 122.439 167.909 123.004 167.909ZM134.82 166.818V166.205C134.82 165.78 134.907 165.392 135.081 165.04C135.26 164.684 135.517 164.4 135.854 164.188C136.195 163.972 136.608 163.864 137.093 163.864C137.585 163.864 137.998 163.972 138.331 164.188C138.665 164.4 138.917 164.684 139.087 165.04C139.258 165.392 139.343 165.78 139.343 166.205V166.818C139.343 167.242 139.256 167.633 139.081 167.989C138.911 168.341 138.657 168.625 138.32 168.841C137.987 169.053 137.578 169.159 137.093 169.159C136.6 169.159 136.186 169.053 135.849 168.841C135.511 168.625 135.256 168.341 135.081 167.989C134.907 167.633 134.82 167.242 134.82 166.818ZM135.979 166.205V166.818C135.979 167.17 136.063 167.487 136.229 167.767C136.396 168.044 136.684 168.182 137.093 168.182C137.491 168.182 137.771 168.044 137.934 167.767C138.1 167.487 138.184 167.17 138.184 166.818V166.205C138.184 165.852 138.104 165.538 137.945 165.261C137.786 164.981 137.502 164.841 137.093 164.841C136.695 164.841 136.409 164.981 136.235 165.261C136.064 165.538 135.979 165.852 135.979 166.205ZM129.025 160.159V159.545C129.025 159.121 129.112 158.733 129.286 158.381C129.464 158.025 129.722 157.741 130.059 157.528C130.4 157.312 130.813 157.205 131.297 157.205C131.79 157.205 132.203 157.312 132.536 157.528C132.869 157.741 133.121 158.025 133.292 158.381C133.462 158.733 133.547 159.121 133.547 159.545V160.159C133.547 160.583 133.46 160.973 133.286 161.33C133.116 161.682 132.862 161.966 132.525 162.182C132.191 162.394 131.782 162.5 131.297 162.5C130.805 162.5 130.39 162.394 130.053 162.182C129.716 161.966 129.46 161.682 129.286 161.33C129.112 160.973 129.025 160.583 129.025 160.159ZM130.184 159.545V160.159C130.184 160.511 130.267 160.828 130.434 161.108C130.6 161.384 130.888 161.523 131.297 161.523C131.695 161.523 131.975 161.384 132.138 161.108C132.305 160.828 132.388 160.511 132.388 160.159V159.545C132.388 159.193 132.309 158.879 132.15 158.602C131.991 158.322 131.706 158.182 131.297 158.182C130.9 158.182 130.614 158.322 130.439 158.602C130.269 158.879 130.184 159.193 130.184 159.545ZM129.456 169L137.456 157.364H138.752L130.752 169H129.456ZM144.455 163.182C144.455 164.614 144.267 165.932 143.892 167.136C143.521 168.337 142.989 169.443 142.296 170.455H141.114C141.386 170.08 141.64 169.617 141.875 169.068C142.114 168.523 142.322 167.924 142.5 167.273C142.678 166.617 142.816 165.941 142.915 165.244C143.017 164.544 143.068 163.856 143.068 163.182C143.068 162.28 142.981 161.366 142.807 160.438C142.633 159.509 142.398 158.648 142.102 157.852C141.807 157.057 141.477 156.409 141.114 155.909H142.296C142.989 156.92 143.521 158.028 143.892 159.233C144.267 160.434 144.455 161.75 144.455 163.182Z" fill="#00DE73"/>
<path fill-rule="evenodd" clip-rule="evenodd" d="M277.359 152.23C277.064 152.011 276.646 152.035 276.38 152.303L272.302 156.4L272.229 156.484C272.012 156.778 272.037 157.195 272.304 157.461L272.389 157.533C272.683 157.75 273.099 157.725 273.365 157.458L276.161 154.649V166.451L276.168 166.552C276.218 166.919 276.531 167.201 276.911 167.201C277.325 167.201 277.661 166.865 277.661 166.451V154.649L280.457 157.458L280.541 157.531C280.834 157.749 281.251 157.726 281.518 157.461C281.812 157.168 281.813 156.693 281.521 156.4L277.443 152.303L277.438 152.299C277.415 152.276 277.39 152.255 277.365 152.236L277.359 152.23ZM287.583 155.445C287.533 155.079 287.219 154.796 286.84 154.796C286.425 154.796 286.09 155.132 286.09 155.546V167.348L283.293 164.539L283.209 164.466C282.916 164.248 282.499 164.271 282.233 164.537C281.939 164.829 281.938 165.304 282.23 165.597L286.308 169.694L286.313 169.698C286.336 169.721 286.36 169.742 286.386 169.762L286.392 169.767C286.686 169.986 287.104 169.962 287.371 169.694L291.449 165.597L291.521 165.513C291.738 165.219 291.713 164.802 291.446 164.537C291.153 164.244 290.678 164.245 290.386 164.539L287.59 167.347V155.546L287.583 155.445Z" fill="#00DE73"/>
<path fill-rule="evenodd" clip-rule="evenodd" d="M279.927 28.0104C276.946 28.0104 274.551 30.4052 274.551 33.3867C274.551 36.369 276.946 38.7641 279.927 38.7641C282.909 38.7641 285.304 36.369 285.304 33.3867C285.304 30.4052 282.909 28.0104 279.927 28.0104ZM279.927 29.7604C281.942 29.7604 283.554 31.3717 283.554 33.3867C283.554 35.4026 281.942 37.0141 279.927 37.0141C277.912 37.0141 276.301 35.4026 276.301 33.3867C276.301 31.3717 277.912 29.7604 279.927 29.7604ZM273.338 29.1093C273.822 29.1093 274.213 29.501 274.213 29.9843C274.213 30.4675 273.822 30.8593 273.338 30.8593C271.952 30.8593 270.827 31.9832 270.827 33.3691C270.827 34.7549 271.952 35.8788 273.338 35.8788C273.822 35.8788 274.213 36.2706 274.213 36.7538C274.213 37.2371 273.822 37.6288 273.338 37.6288C270.986 37.6288 269.077 35.7216 269.077 33.3691C269.077 31.0165 270.986 29.1093 273.338 29.1093ZM290.788 33.3691C290.788 31.0165 288.88 29.1093 286.527 29.1093C286.044 29.1093 285.652 29.501 285.652 29.9843C285.652 30.4675 286.044 30.8593 286.527 30.8593C287.914 30.8593 289.038 31.9832 289.038 33.3691C289.038 34.7549 287.914 35.8788 286.527 35.8788C286.044 35.8788 285.652 36.2706 285.652 36.7538C285.652 37.2371 286.044 37.6288 286.527 37.6288C288.88 37.6288 290.788 35.7216 290.788 33.3691ZM289.912 39.8141C289.352 39.6877 288.753 39.6013 288.144 39.5593C287.662 39.526 287.244 39.8899 287.211 40.372C287.178 40.8541 287.542 41.2719 288.024 41.3051C288.545 41.3411 289.055 41.4148 289.552 41.5265C290.324 41.678 290.827 41.929 290.952 42.1908C291.046 42.3884 291.046 42.6207 290.951 42.8207C290.828 43.0798 290.328 43.3296 289.567 43.4861C289.094 43.5834 288.789 44.0461 288.887 44.5194C288.984 44.9927 289.447 45.2976 289.92 45.2002C291.178 44.9416 292.099 44.4803 292.532 43.5715C292.852 42.8958 292.852 42.1121 292.532 41.4382C292.096 40.5259 291.159 40.0583 289.912 39.8141ZM272.655 40.372C272.621 39.8899 272.204 39.526 271.722 39.5593C271.113 39.6013 270.514 39.6877 269.93 39.8192L269.689 39.8701C268.583 40.1227 267.74 40.587 267.335 41.4381C267.013 42.1114 267.013 42.8965 267.335 43.5722C267.766 44.4801 268.687 44.9415 269.946 45.2002C270.419 45.2976 270.882 44.9927 270.979 44.5194C271.076 44.0461 270.772 43.5834 270.298 43.4861C269.537 43.3296 269.039 43.08 268.916 42.8208C268.82 42.62 268.82 42.3891 268.915 42.1912C269.04 41.9288 269.542 41.6779 270.29 41.5315L270.679 41.4519C271.066 41.3803 271.451 41.3321 271.842 41.3051C272.324 41.2719 272.688 40.8541 272.655 40.372ZM272.028 44.0486C272.028 41.265 274.908 40.2861 279.927 40.2861L280.283 40.2878C285.093 40.333 287.826 41.3141 287.826 44.0283C287.826 46.6786 285.214 47.6934 280.63 47.7841L279.927 47.7908C274.896 47.7908 272.028 46.8291 272.028 44.0486ZM286.076 44.0283C286.076 42.7327 283.999 42.0361 279.927 42.0361C275.86 42.0361 273.778 42.7437 273.778 44.0486C273.778 45.3444 275.855 46.0408 279.927 46.0408C283.994 46.0408 286.076 45.3326 286.076 44.0283Z" fill="#42BBFF"/>
</svg>
